<svg width="250" height="856" viewBox="0 0 250 856" fill="none" xmlns="http://www.w3.org/2000/svg">
<path fill-rule="evenodd" clip-rule="evenodd" d="M124.169 0.0265642C131.564 -0.0474746 135.75 -0.0262434 143.086 0.898312C144.467 1.07235 145.754 1.21728 146.976 1.35489C152.854 2.01675 157.229 2.50938 163.323 5.25705C169.613 8.09306 172.962 10.433 177.841 15.2822C183.358 20.7657 186.77 24.3791 188.839 31.8454C190.613 38.2471 190.469 42.4055 188.839 48.8446C187.939 52.4011 185.32 57.5621 185.32 57.5621C185.32 57.5621 186.714 60.6702 187.079 62.7926C187.458 64.9868 187.327 66.3361 187.123 68.438C187.109 68.5864 187.094 68.7385 187.079 68.8949C186.781 72.0197 186.42 73.7975 185.32 76.7406C184.09 80.0272 180.92 84.5864 180.92 84.5864C180.92 84.5864 181.812 87.7545 182.24 89.8169C183.283 94.8438 183.56 102.893 183.56 102.893C183.56 102.893 184.614 119.631 185.32 130.353C189.087 187.584 196.318 276.807 196.318 276.807C196.318 276.807 197.476 288.571 198.958 295.986C200.827 305.344 202.353 310.527 205.557 319.523C208.436 327.61 210.748 332.404 214.117 339.388C214.612 340.414 215.129 341.487 215.675 342.625C218.274 348.044 220.674 352.173 223.038 356.241C225.685 360.794 228.287 365.27 231.072 371.392L231.349 371.999C234.378 378.657 236.169 382.593 238.551 389.699C241.454 398.358 242.585 403.395 244.27 412.365C245.526 419.044 245.97 423.202 246.625 429.331C246.692 429.951 246.76 430.591 246.832 431.256C246.857 431.494 246.883 431.735 246.91 431.979C248.396 445.685 248.584 454.908 248.821 466.467C248.897 470.197 248.978 474.171 249.11 478.618C249.728 499.534 249.548 514.184 249.34 531.131C249.244 538.998 249.141 547.361 249.11 557.075C249.038 579.034 248.854 596.132 248.669 613.266L248.669 613.277C248.487 630.142 248.305 647.046 248.23 668.66C248.109 703.214 248.23 757.142 248.23 757.142C248.23 757.142 247.962 767.522 247.35 774.141C247.234 775.401 247.144 776.536 247.06 777.603C246.78 781.17 246.559 783.975 245.59 788.089C244.479 792.807 243.684 795.461 241.631 799.858C238.75 806.027 236.156 809.127 231.874 814.245L231.512 814.678C226.474 820.703 223.219 823.809 216.995 828.626C208.866 834.916 203.478 837.409 194.118 841.702C182.926 846.835 176.211 848.941 164.203 851.727C154.054 854.082 148.209 854.98 137.807 855.65C129.749 856.17 125.195 856.06 117.13 855.65C107.808 855.176 102.565 854.653 93.3741 853.035C83.0766 851.222 77.2607 850.002 67.4182 846.497C56.6438 842.66 50.7351 839.862 41.0223 833.856C40.4413 833.497 39.8761 833.149 39.325 832.809C31.6919 828.103 26.7772 825.074 20.3456 818.165C15.3356 812.783 12.6312 809.468 9.34731 802.909C6.21942 796.662 5.34606 792.448 4.02548 786.076C3.89823 785.461 3.76618 784.824 3.62821 784.167C1.38425 773.468 1.42856 756.271 1.42856 756.271V724.016C1.42856 705.651 1.48771 690.122 1.54366 675.436C1.64691 648.33 1.73923 624.094 1.42856 590.202C1.30415 576.63 0.985698 565.436 0.680956 554.724C0.221219 538.563 -0.207304 523.5 0.108767 503.027C0.36902 486.169 0.667882 476.718 1.42856 459.875C1.63141 455.384 1.71791 451.48 1.79919 447.812C1.98607 439.377 2.14538 432.187 3.62821 421.954C4.99771 412.503 5.89884 407.183 8.46746 397.981C11.4958 387.132 13.811 381.171 18.5859 370.957C20.9635 365.87 23.2178 362.196 25.5182 358.446C27.5333 355.161 29.5838 351.819 31.7838 347.419C35.2996 340.388 37.0833 336.35 40.1425 329.113C40.8396 327.463 41.4869 325.969 42.0964 324.561C44.4072 319.226 46.1755 315.143 48.0612 308.626C50.2016 301.23 50.8961 296.385 51.8596 289.663C52.0458 288.364 52.242 286.996 52.4605 285.525C53.569 278.068 54.6602 266.346 54.6602 266.346C54.6602 266.346 60.7327 186.662 64.3387 135.584C64.7093 130.334 64.8541 125.883 64.9911 121.671C65.2406 114.002 65.4642 107.126 66.9783 97.6627L67.0362 97.3006C67.4648 94.6202 67.7225 93.0084 68.2981 90.2528C68.7626 88.0289 69.6179 84.5864 69.6179 84.5864C69.6179 84.5864 66.8522 81.3376 65.6585 78.92C64.3207 76.2105 63.8837 74.4969 63.4588 71.5101C63.0805 68.8513 63.2097 67.2308 63.4108 64.706C63.4265 64.5098 63.4425 64.3082 63.4588 64.1002C63.6469 61.7002 64.3387 57.998 64.3387 57.998C64.3387 57.998 62.8521 54.8645 62.139 52.7675C61.1811 49.9503 60.7398 48.3088 60.3793 45.3576C59.9871 42.1469 59.9552 40.2827 60.3793 37.076C60.9159 33.0183 61.7974 30.7976 63.4588 27.0509C65.3196 22.8547 66.7472 20.6198 69.6179 17.0257C72.0849 13.9371 73.6819 12.7992 76.6139 10.7104C76.9073 10.5013 77.2142 10.2827 77.5366 10.0517C83.6142 5.69664 88.2381 4.19147 95.5738 2.64181C98.3838 2.04818 100.256 1.84188 102.696 1.57298C103.351 1.5008 104.046 1.42412 104.812 1.33421C112.337 0.450978 116.593 0.102419 124.169 0.0265642Z" fill="white"/>
<path fill-rule="evenodd" clip-rule="evenodd" d="M124.169 0.0265639C131.564 -0.0474749 135.75 -0.026241 143.086 0.898315C144.467 1.07235 145.754 1.21728 146.976 1.35489C152.854 2.01675 157.229 2.50939 163.323 5.25707C169.613 8.09307 172.962 10.433 177.841 15.2822C183.358 20.7657 186.77 24.3791 188.839 31.8455C190.613 38.2471 190.469 42.4055 188.839 48.8446C187.939 52.4011 185.32 57.5621 185.32 57.5621C185.32 57.5621 186.714 60.6702 187.079 62.7926C187.458 64.9868 187.327 66.3361 187.123 68.438C187.109 68.5864 187.094 68.7385 187.079 68.8949C186.781 72.0196 186.42 73.7975 185.32 76.7406C184.09 80.0273 180.92 84.5864 180.92 84.5864C180.92 84.5864 181.812 87.7545 182.24 89.8169C183.283 94.8439 183.56 102.893 183.56 102.893C183.56 102.893 184.614 119.631 185.32 130.353C189.087 187.584 196.318 276.807 196.318 276.807C196.318 276.807 197.476 288.571 198.958 295.986C200.827 305.344 202.353 310.527 205.557 319.523C208.436 327.61 210.748 332.404 214.117 339.388C214.612 340.414 215.129 341.487 215.675 342.625C218.274 348.044 220.674 352.173 223.038 356.241C225.685 360.794 228.287 365.27 231.072 371.392L231.349 371.999C234.378 378.657 236.169 382.593 238.551 389.699C241.454 398.358 242.585 403.395 244.27 412.365C245.526 419.045 245.97 423.202 246.625 429.331C246.692 429.951 246.76 430.591 246.832 431.256C246.857 431.494 246.883 431.735 246.91 431.979C248.396 445.685 248.584 454.908 248.821 466.467C248.897 470.197 248.978 474.171 249.11 478.618C249.728 499.534 249.548 514.184 249.34 531.131C249.244 538.998 249.141 547.361 249.11 557.075C249.038 579.034 248.854 596.132 248.669 613.266L248.669 613.277C248.487 630.142 248.305 647.046 248.23 668.66C248.109 703.214 248.23 757.142 248.23 757.142C248.23 757.142 247.962 767.522 247.35 774.141C247.234 775.401 247.144 776.536 247.06 777.603C246.78 781.17 246.559 783.975 245.59 788.089C244.479 792.807 243.684 795.461 241.631 799.858C238.75 806.027 236.156 809.127 231.874 814.245L231.512 814.678C226.474 820.703 223.219 823.809 216.995 828.626C208.866 834.916 203.478 837.409 194.118 841.702C182.926 846.835 176.211 848.941 164.203 851.727C154.054 854.082 148.209 854.98 137.807 855.65C129.749 856.17 125.195 856.06 117.13 855.65C107.808 855.176 102.565 854.653 93.3741 853.035C83.0766 851.222 77.2607 850.002 67.4182 846.497C56.6438 842.66 50.7351 839.862 41.0223 833.856C40.4413 833.497 39.8761 833.149 39.325 832.809C31.6919 828.103 26.7772 825.074 20.3456 818.165C15.3356 812.783 12.6312 809.468 9.34732 802.909C6.21943 796.662 5.34606 792.448 4.02548 786.076C3.89823 785.461 3.76619 784.824 3.62821 784.167C1.38425 773.468 1.42856 756.271 1.42856 756.271V724.016C1.42856 705.651 1.48771 690.122 1.54366 675.436C1.64691 648.33 1.73923 624.094 1.42856 590.202C1.30415 576.63 0.985694 565.436 0.680952 554.724C0.221215 538.563 -0.207303 523.5 0.108768 503.027C0.369021 486.169 0.667883 476.718 1.42856 459.875C1.63141 455.384 1.71791 451.48 1.79918 447.812C1.98607 439.377 2.14539 432.187 3.62821 421.954C4.99771 412.503 5.89884 407.183 8.46745 397.981C11.4958 387.132 13.811 381.171 18.5859 370.957C20.9635 365.87 23.2178 362.196 25.5182 358.446C27.5333 355.161 29.5838 351.819 31.7838 347.419C35.2996 340.388 37.0833 336.35 40.1425 329.113C40.8396 327.463 41.4869 325.969 42.0964 324.561C44.4072 319.226 46.1755 315.143 48.0612 308.626C50.2016 301.23 50.8961 296.385 51.8596 289.663C52.0458 288.364 52.242 286.996 52.4605 285.525C53.569 278.068 54.6602 266.346 54.6602 266.346C54.6602 266.346 60.7327 186.662 64.3387 135.584C64.7093 130.334 64.8541 125.883 64.9911 121.671C65.2405 114.003 65.4642 107.126 66.9783 97.6627L67.0362 97.3006C67.4648 94.6201 67.7225 93.0084 68.298 90.2528C68.7626 88.0289 69.6178 84.5864 69.6178 84.5864C69.6178 84.5864 66.8522 81.3376 65.6585 78.92C64.3207 76.2105 63.8838 74.4969 63.4588 71.5101C63.0805 68.8513 63.2097 67.2308 63.4108 64.706C63.4265 64.5098 63.4425 64.3082 63.4588 64.1003C63.6469 61.7002 64.3387 57.998 64.3387 57.998C64.3387 57.998 62.8521 54.8645 62.139 52.7675C61.1811 49.9503 60.7398 48.3088 60.3793 45.3576C59.9871 42.1469 59.9552 40.2827 60.3793 37.076C60.9159 33.0183 61.7974 30.7975 63.4588 27.0508C65.3196 22.8547 66.7472 20.6197 69.6178 17.0257C72.0849 13.937 73.6819 12.7993 76.6139 10.7104C76.9073 10.5014 77.2142 10.2827 77.5366 10.0517C83.6142 5.69664 88.2381 4.19148 95.5738 2.64182C98.3838 2.04819 100.256 1.84188 102.696 1.57298C103.351 1.50079 104.046 1.4241 104.812 1.33419C112.337 0.450957 116.593 0.102418 124.169 0.0265639ZM140.887 822.088L137.807 823.831C137.807 823.831 143.172 823.965 146.606 823.831C152.824 823.589 156.331 823.243 162.443 822.088C170.186 820.624 174.43 819.191 181.8 816.421L182.35 816.215C190.206 813.264 194.89 811.504 202.037 806.832C205.106 804.826 206.987 803.284 209.382 801.321C210.098 800.734 210.861 800.109 211.716 799.422C213.8 797.747 216.995 795.063 216.995 795.063V793.32H214.795C214.795 793.32 212.905 794.361 211.716 795.063C209.694 796.257 208.224 797.328 206.742 798.408C205.343 799.427 203.933 800.455 202.037 801.602C195.479 805.569 191.511 807.341 184.44 810.319C177.888 813.078 174.094 814.371 167.282 816.421C161.342 818.21 157.974 819.14 151.885 820.344C147.619 821.188 140.887 822.088 140.887 822.088ZM33.9834 795.499C33.4081 794.687 32.6636 793.32 32.6636 793.32C32.6636 793.32 37.7735 795.948 41.0223 797.679C43.635 799.071 45.7007 800.261 47.7097 801.419C50.2325 802.873 52.6657 804.275 55.98 805.96C56.6296 806.291 57.2468 806.606 57.8391 806.908C62.4836 809.279 65.6038 810.872 70.9376 812.934C76.8187 815.208 80.5274 816.18 86.1546 817.655C86.7761 817.818 87.4211 817.987 88.0949 818.165C91.4553 819.051 94.1289 819.575 96.793 820.098C99.5257 820.634 102.248 821.168 105.692 822.088C108.107 822.733 111.851 823.831 111.851 823.831C111.851 823.831 102.983 824.308 97.3335 823.831C90.398 823.246 86.4767 822.221 79.9154 820.506L79.2963 820.344L78.376 820.104C72.1034 818.469 68.2623 817.467 62.139 814.678C57.2664 812.458 54.4653 810.659 50.4034 808.051C49.8007 807.664 49.1702 807.259 48.5011 806.832C47.5467 806.223 46.6775 805.689 45.8629 805.187C43.2243 803.563 41.133 802.277 38.3827 799.858C37.9931 799.515 37.6325 799.21 37.2926 798.922C36.0471 797.867 35.0796 797.048 33.9834 795.499ZM25.1848 808.576C23.1353 806.507 20.3456 802.909 20.3456 802.909C20.3456 802.909 24.1804 804.039 26.5046 805.089C28.5008 805.99 29.7192 806.748 31.3108 807.739C31.729 808 32.1729 808.276 32.6636 808.576C35.8626 810.527 38.127 812.224 40.3703 813.906C42.7435 815.685 45.0933 817.446 48.5011 819.472C59.5538 826.044 66.8407 828.365 79.2963 832.113C89.2279 835.102 94.9521 836.509 105.252 837.779C115.146 838.999 120.808 839.095 130.768 838.651C138.71 838.297 143.172 837.817 151.005 836.472C160.079 834.914 165.111 833.586 173.881 830.805C181.236 828.474 185.376 827.097 192.359 823.831C197.461 821.445 200.344 819.748 204.916 817.057L205.055 816.975C205.361 816.795 205.674 816.611 205.996 816.421C211.649 813.098 214.835 810.953 220.022 807.46L220.954 806.832C221.757 806.291 222.376 805.698 222.961 805.137C224.013 804.129 224.957 803.223 226.673 802.909C227.856 802.693 229.753 802.909 229.753 802.909C229.753 802.909 229.007 804.275 228.433 805.089C227.195 806.84 225.997 807.756 224.579 808.839C224 809.282 223.384 809.752 222.714 810.319C215.809 816.16 211.076 818.796 203.552 822.987L202.832 823.388L202.037 823.831C191.519 829.701 185.31 832.619 173.881 836.472C162.52 840.302 155.846 841.753 143.966 843.446C133.401 844.951 127.354 845.65 116.69 845.189C102.72 844.585 94.8034 842.908 81.496 838.651C72.7841 835.864 67.9159 833.526 60.0571 829.752L60.0223 829.735C59.5653 829.516 59.0982 829.291 58.6196 829.062L57.6682 828.606C50.1524 825.002 45.6222 822.831 38.3827 818.165C37.2436 817.431 36.1946 816.779 35.2059 816.166L35.2029 816.164C31.5431 813.892 28.7092 812.133 25.1848 808.576ZM239.871 742.758L243.391 739.707C243.391 739.707 238.228 741.398 235.032 742.758C234.561 742.959 234.116 743.148 233.692 743.329C230.104 744.855 227.968 745.763 224.034 747.553C216.724 750.878 212.382 752.715 204.677 755.399C196.397 758.283 191.397 759.534 183.282 761.566C182.8 761.687 182.306 761.81 181.8 761.937C173.273 764.074 168.471 765.249 159.804 766.732C151.95 768.075 147.519 768.821 139.567 769.347C131.167 769.902 126.421 769.704 118.01 769.347C106.277 768.849 99.6723 768.251 88.0949 766.296C75.8617 764.229 68.9323 762.215 57.4158 758.867L55.98 758.45C45.5531 755.421 39.7002 753.662 29.5841 749.732C29.2725 749.611 28.9678 749.493 28.6693 749.378L27.9356 749.093C22.8241 747.113 19.4889 745.821 14.1865 743.194C11.5743 741.9 7.58757 739.707 7.58757 739.707C7.58757 739.707 7.38557 741.059 7.58757 741.887C7.97091 743.456 9.23108 743.898 10.6431 744.393C11.3772 744.65 12.1524 744.922 12.8667 745.374C16.5666 747.715 22.5452 751.04 22.5452 751.04C22.5452 751.04 22.3036 757.953 22.5452 762.373C22.7681 766.449 23.1223 768.931 23.6471 772.609L23.6478 772.614C23.7172 773.1 23.7896 773.607 23.865 774.141C23.9713 774.894 23.9806 775.563 23.9895 776.195C24.0067 777.425 24.0219 778.514 24.7449 779.808C25.2777 780.761 26.5046 781.987 26.5046 781.987C26.5046 781.987 27.6915 781.314 28.2643 780.68C29.1578 779.69 29.2483 778.698 29.3519 777.563C29.3997 777.038 29.4503 776.484 29.5841 775.885C31.4783 767.409 29.5841 753.655 29.5841 753.655C29.5841 753.655 39.7325 757.486 46.3015 759.758C48.1137 760.384 49.7385 760.961 51.265 761.504L51.268 761.505C56.3513 763.311 60.345 764.729 66.5383 766.296C72.3169 767.757 81.496 769.347 81.496 769.347V808.576C81.496 808.576 85.5138 809.654 88.0949 810.319C92.2081 811.38 98.6533 812.934 98.6533 812.934V772.834C98.6533 772.834 102.659 773.52 105.252 773.706C108.337 773.926 113.171 773.706 113.171 773.706L114.051 814.678H133.408V774.141L146.606 772.834V812.934C146.606 812.934 153.355 812.431 157.604 811.627C162.148 810.766 169.042 808.576 169.042 808.576V769.347C169.042 769.347 176.869 767.973 181.8 766.732C187.909 765.193 197.198 761.937 197.198 761.937L207.316 758.45V788.089L220.954 778.5V754.091C220.954 754.091 225.515 751.705 228.433 750.168C231.012 748.81 235.032 746.681 235.032 746.681V772.834V782.859L236.792 785.474C236.792 785.474 237.997 783.957 238.551 782.859C239.36 781.256 239.477 779.979 239.611 778.5C239.672 777.831 239.737 777.121 239.871 776.321C242.041 763.391 239.871 742.758 239.871 742.758ZM20.3456 737.528C15.2771 734.785 7.58757 730.118 7.58757 730.118C7.58757 730.118 9.46775 730.03 10.6671 730.118C14.123 730.372 16.3008 731.584 18.8242 732.989C19.9479 733.614 21.1411 734.279 22.5452 734.913C25.2069 736.115 27.215 737.229 29.2099 738.335C31.3022 739.496 33.381 740.649 36.1831 741.887C42.5378 744.693 46.2132 746.086 52.9004 747.989C56.848 749.112 59.5492 749.646 62.9203 750.312C64.0305 750.532 65.2144 750.766 66.5383 751.04C78.4822 753.512 85.2327 754.719 97.3335 756.271L97.8945 756.343L97.898 756.343C106.111 757.396 110.9 758.011 119.33 758.45C128.438 758.924 133.798 758.46 142.502 757.705C142.979 757.664 143.467 757.621 143.966 757.578C153.818 756.728 159.317 755.867 169.042 754.091C178.224 752.415 183.371 751.363 192.359 748.861C200.727 746.53 205.435 745.16 213.475 741.887C217.305 740.328 220.148 738.808 222.998 737.286C225.807 735.785 228.622 734.281 232.392 732.733C235.959 731.269 241.631 729.246 241.631 729.246C241.631 729.246 238.815 732.061 236.792 733.605C233.964 735.763 231.695 736.785 229.021 737.989C227.895 738.497 226.695 739.037 225.353 739.707C217.456 743.653 212.967 745.808 204.677 748.861C195.363 752.29 189.034 753.713 180.704 755.586C178.586 756.062 176.339 756.568 173.881 757.142C172.568 757.449 171.349 757.738 170.194 758.012C164.281 759.412 160.024 760.42 153.205 761.501C145.524 762.719 141.178 763.31 133.408 763.68C121.899 764.229 115.379 763.684 103.932 762.373C93.6314 761.193 87.1555 759.698 78.3379 757.662L78.329 757.66C76.4337 757.223 74.4303 756.76 72.2574 756.271C70.3129 755.832 68.5634 755.455 66.9201 755.101C61.559 753.945 57.3283 753.033 51.1407 751.04C45.1932 749.125 41.9136 747.855 36.1831 745.374C29.8466 742.63 26.4143 740.812 20.3456 737.528ZM15.9463 476.439C13.5893 475.741 9.78723 475.131 9.78723 475.131C9.78723 475.131 11.1581 477.47 12.4268 478.618C13.957 480.002 15.4367 480.381 17.1011 480.808C17.9739 481.031 18.8974 481.268 19.9056 481.669C21.882 482.456 23.6556 483.182 25.3224 483.865C30.9731 486.179 35.3979 487.991 42.3421 489.951C50.6426 492.293 56.4068 493.083 63.5618 494.064C65.9612 494.393 68.5171 494.744 71.3775 495.181C73.3792 495.487 75.238 495.779 77.001 496.055L77.0237 496.059C86.0999 497.482 92.6379 498.507 103.053 499.104C112.587 499.65 118.451 499.474 127.131 499.212L127.186 499.21C128.327 499.176 129.516 499.14 130.768 499.104C142.295 498.774 148.77 498.506 160.244 497.361C171.291 496.258 177.498 495.53 188.399 493.438C196.541 491.875 201.109 490.925 209.076 488.643C218.002 486.086 222.935 484.336 231.512 480.797C232.452 480.41 233.344 480.197 234.188 479.997C235.83 479.606 237.287 479.259 238.551 477.746C239.19 476.981 239.871 475.567 239.871 475.567L237.671 474.695L239.871 472.951C239.871 472.951 239.481 461.488 238.551 454.209C238.27 452.007 238.045 450.137 237.833 448.38C237.401 444.796 237.026 441.686 236.352 437.21C235.67 432.69 235.068 429.792 234.241 425.815L234.236 425.793C234.071 424.999 233.897 424.163 233.712 423.262C233.581 422.626 233.457 422.019 233.337 421.436C232.299 416.367 231.613 413.02 230.193 407.57C228.806 402.25 227.922 399.292 226.233 394.058C224.347 388.212 220.954 379.238 220.954 379.238L216.555 380.982C216.555 380.982 218.623 386.175 220.074 389.699C222.232 394.938 223.393 398.193 224.913 403.647C225.456 405.592 225.945 407.27 226.404 408.846C227.429 412.363 228.309 415.38 229.313 419.775C231.792 430.629 232.472 436.978 233.638 447.851L233.712 448.542C234.84 459.059 235.472 475.567 235.472 475.567C235.472 475.567 232.277 476.951 230.193 477.746C226.644 479.101 220.954 480.797 220.954 480.797C220.954 480.797 221.364 467.239 220.954 458.568C220.89 457.213 220.845 455.983 220.803 454.826C220.648 450.591 220.529 447.323 219.634 442.44C219.082 439.426 218.459 437.315 217.765 434.962C217.383 433.669 216.98 432.302 216.555 430.672C216.002 428.554 215.594 426.75 215.208 425.042C214.507 421.948 213.879 419.17 212.595 415.416C211.557 412.377 210.628 410.27 209.59 407.918C209.023 406.632 208.423 405.272 207.756 403.647C205.52 398.201 202.037 389.699 202.037 389.699C202.037 389.699 197.698 392.795 194.558 394.058C192.241 394.991 188.399 395.802 188.399 395.802C188.399 395.802 193.804 407.551 196.318 415.416C198.192 421.28 199.169 424.619 200.277 430.672C201.207 435.749 201.426 439.245 201.694 443.524C201.791 445.06 201.893 446.696 202.037 448.542C203.189 463.316 203.357 486.464 203.357 486.464C203.357 486.464 195.859 487.848 191.039 488.643C182.818 489.999 169.922 491.694 169.922 491.694C169.922 491.694 169.789 484.254 169.922 479.49C170.005 476.536 170.185 474.269 170.368 471.968C170.534 469.887 170.702 467.777 170.802 465.106C170.866 463.395 170.937 461.827 171.005 460.348L171.005 460.344C171.286 454.178 171.498 449.544 170.802 442.44C170.06 434.863 169.344 430.595 167.282 423.262C165.21 415.892 160.244 404.955 160.244 404.955C160.244 404.955 153.855 406.757 149.685 407.57C144.583 408.565 141.679 409.019 136.487 409.314C132.542 409.538 126.369 409.314 126.369 409.314C126.369 409.314 123.941 418.874 122.41 425.005C121.762 427.598 121.154 429.794 120.58 431.866C119.461 435.91 118.472 439.483 117.57 444.62C116.537 450.508 116.263 454.719 115.95 459.536C115.797 461.886 115.635 464.381 115.371 467.285C114.441 477.492 113.171 493.438 113.171 493.438H99.0932C99.0932 493.438 99.4412 482.269 99.9731 475.131C100.6 466.719 101.321 461.268 102.268 454.103L102.269 454.099C102.514 452.244 102.775 450.273 103.053 448.107C103.369 445.639 103.633 443.441 103.881 441.381C104.608 435.327 105.194 430.442 106.572 423.262C107.623 417.784 109.652 409.314 109.652 409.314L101.293 407.57L89.4147 404.955C89.4147 404.955 85.6672 412.201 84.1355 417.159C82.7972 421.492 82.4311 424.492 81.9654 428.307C81.8271 429.44 81.68 430.646 81.496 431.979C80.9033 436.275 80.6714 438.939 80.3318 442.839C80.2827 443.404 80.2312 443.995 80.1762 444.62C78.5617 462.941 78.8564 491.694 78.8564 491.694C78.8564 491.694 69.1402 491.06 63.0189 489.951C59.0016 489.222 56.3086 488.478 53.067 487.582C51.8105 487.235 50.4715 486.864 48.9411 486.464C42.2105 484.701 31.7838 481.669 31.7838 481.669C31.7838 481.669 32.6381 471.578 33.1036 465.106C33.4663 460.063 33.6221 455.948 33.7725 451.977C33.9771 446.575 34.1715 441.439 34.8633 434.594C34.9771 433.468 35.0792 432.423 35.176 431.433C35.6661 426.416 36.0198 422.796 37.0629 417.159C38.4826 409.489 39.8068 405.092 41.9544 397.961L41.9649 397.926C42.0879 397.518 42.2136 397.101 42.3421 396.673C43.3197 393.423 44.9817 388.392 44.9817 388.392L37.0629 384.033C37.0629 384.033 34.4969 390.89 33.1036 395.366C30.4997 403.729 29.4671 408.559 27.8244 417.159C26.6628 423.241 26.1788 426.96 25.4436 432.61C25.361 433.245 25.2751 433.904 25.1848 434.594C22.9462 451.697 21.6654 478.618 21.6654 478.618C21.6654 478.618 18.2391 477.117 15.9463 476.439ZM232.832 541.82C232.055 527.506 230.193 505.206 230.193 505.206C230.193 505.206 229.303 515.295 228.873 521.77C227.841 537.297 227.764 547.527 227.664 560.755V560.76C227.636 564.466 227.606 568.408 227.553 572.767C227.413 584.246 227.455 592.456 227.501 601.636V601.641V601.644C227.526 606.618 227.553 611.878 227.553 618.098C227.553 625.516 227.457 631.79 227.366 637.723C227.199 648.674 227.049 658.466 227.553 672.147C228.269 691.586 231.072 721.836 231.072 721.836C231.072 721.836 233.668 686.796 234.152 664.301C234.363 654.477 234.301 647.451 234.23 639.592C234.192 635.334 234.152 630.832 234.152 625.508C234.152 618.928 234.201 613.363 234.247 608.1C234.332 598.388 234.409 589.703 234.152 577.562C233.857 563.597 233.589 555.767 232.832 541.82ZM16.8261 530.487C17.6025 521.271 19.4657 506.95 19.4657 506.95C19.4657 506.95 20.0509 516.511 20.3456 522.641C20.587 527.664 20.6962 531.547 20.8066 535.471C20.9094 539.123 21.0132 542.811 21.2254 547.486C21.4233 551.846 21.6423 555.311 21.8574 558.714C22.1044 562.623 22.3463 566.451 22.5452 571.459C23.1719 587.234 22.9857 598.527 22.7774 611.157C22.6646 618 22.5452 625.235 22.5452 633.789C22.5452 640.011 22.639 645.273 22.7277 650.25C22.8913 659.436 23.0377 667.649 22.5452 679.121C21.8346 695.673 19.0258 721.4 19.0258 721.4C19.0258 721.4 17.4876 703.615 16.8261 692.197C16.0085 678.083 15.7655 670.154 15.5063 656.019C15.3363 646.747 15.3868 640.115 15.4433 632.698C15.474 628.68 15.5063 624.43 15.5063 619.406C15.5063 613.902 15.4828 609.249 15.4605 604.847C15.4193 596.724 15.3826 589.461 15.5063 579.305C15.5662 574.396 15.5765 570.039 15.5863 565.951C15.6144 554.157 15.6372 544.6 16.8261 530.487ZM110.971 78.0483C106.759 77.4851 100.413 75.4331 100.413 75.4331C100.413 75.4331 101.89 76.0772 103.053 76.7407C103.376 76.9254 103.681 77.1068 103.977 77.2825C105.099 77.9503 106.085 78.5368 107.452 78.92C110.86 79.8757 116.251 81.0994 116.251 81.0994C116.251 81.0994 111.689 81.2423 108.772 81.0994C105.493 80.9389 103.653 80.7476 100.413 80.2277C96.1375 79.5416 93.7513 78.8569 89.66 77.6828L89.4147 77.6124C89.0895 77.5191 88.7767 77.4297 88.4743 77.3433C85.3805 76.4594 83.3724 75.8856 80.1762 74.5613C76.9864 73.2397 72.2574 70.6384 72.2574 70.6384C72.2574 70.6384 75.0115 73.5359 77.0966 74.9972C79.3529 76.5783 81.0939 77.2404 83.2838 78.0733C83.956 78.3289 84.6706 78.6007 85.4553 78.92C88.8228 80.2904 90.7727 80.9162 94.254 81.9712C99.9924 83.7101 103.304 84.4122 109.212 85.4582C114.498 86.3943 122.849 87.2017 122.849 87.2017C122.849 87.2017 115.354 88.1003 110.531 88.0734C105.353 88.0446 102.034 87.5289 97.6 86.8398C96.559 86.6781 95.4564 86.5068 94.254 86.3299C90.2866 85.7466 84.1355 84.5864 84.1355 84.5864C84.1355 84.5864 88.8441 87.0123 92.0543 88.0734C94.9732 89.0384 97.091 89.3459 99.5876 89.7085C100.645 89.862 101.77 90.0254 103.053 90.2528C104.35 90.4827 105.515 90.7021 106.61 90.9084C110.281 91.5997 113.163 92.1424 117.57 92.4322C123.463 92.8197 126.983 92.5405 132.533 92.1003L132.543 92.0994C132.966 92.0659 133.4 92.0315 133.848 91.9963C139.371 91.5629 142.489 91.3095 147.926 90.2528C148.715 90.0994 149.45 89.963 150.146 89.8337C153.6 89.1927 156.124 88.7241 159.804 87.2017C161.931 86.3217 165.083 84.5864 165.083 84.5864C165.083 84.5864 156.825 86.5128 151.445 87.2017C147.002 87.7706 144.487 88.0383 140.007 88.0734C135.013 88.1126 127.249 87.2017 127.249 87.2017C127.249 87.2017 133.159 86.4803 136.927 85.8941C137.901 85.7427 138.8 85.6072 139.651 85.479C143.63 84.8796 146.548 84.44 151.005 83.2788C154.841 82.2793 156.976 81.6251 160.684 80.2277C161.651 79.863 162.542 79.5473 163.382 79.2495C166.537 78.1318 168.983 77.2648 172.122 74.9972C174.381 73.3645 177.401 70.2026 177.401 70.2026C177.401 70.2026 172.363 72.7171 169.042 74.1254C165.493 75.6308 163.474 76.4256 159.804 77.6124C159.655 77.6606 159.508 77.7081 159.364 77.7548C159.234 77.797 159.106 77.8386 158.979 77.8796C155.749 78.9273 153.688 79.5961 150.125 80.2277C146.221 80.9198 143.967 81.3161 140.007 81.0994C137.581 80.9667 133.848 80.2277 133.848 80.2277C133.848 80.2277 138.983 79.3367 142.206 78.4842C145.881 77.5123 151.445 75.4331 151.445 75.4331L146.166 76.3048C145.079 76.4843 144.162 76.6484 143.295 76.8036C141.694 77.09 140.263 77.3461 138.247 77.6124C134.655 78.0872 132.628 78.2993 129.008 78.4842C124.719 78.7032 122.302 78.646 118.01 78.4842C117.411 78.4616 116.868 78.4455 116.357 78.4303C114.524 78.3759 113.106 78.3338 110.971 78.0483ZM179.601 37.9478L181.8 32.2814C181.8 32.2814 182.864 35.691 183.12 37.9478C183.369 40.1468 183.12 43.6142 183.12 43.6142L179.601 37.9478ZM176.081 57.1263L172.122 59.7415L167.282 47.537C167.282 47.537 171.014 47.7296 173.002 46.6653C175.602 45.2731 177.401 40.563 177.401 40.563L176.081 57.1263ZM161.123 64.1003L164.643 48.8446C164.643 48.8446 162.256 50.9998 160.684 52.3317C160.337 52.625 160.066 52.9145 159.809 53.188C159.311 53.7199 158.869 54.1911 158.044 54.511C156.968 54.9283 156.148 54.8034 155.16 54.6526C154.826 54.6017 154.473 54.5479 154.085 54.511C151.43 54.2592 147.486 52.7675 147.486 52.7675L153.205 66.7156L161.123 64.1003ZM145.286 53.6393L141.766 68.4591L130.328 69.3308L126.809 55.8187C126.809 55.8187 130.765 58.4667 133.408 59.3057C134.548 59.6677 135.201 59.5458 136.334 59.3343L136.487 59.3057C136.999 59.2105 137.314 59.0082 137.676 58.7761C137.847 58.666 138.029 58.5491 138.247 58.4339C141.191 56.8797 145.286 53.6393 145.286 53.6393ZM108.772 68.4591L119.33 69.3308L123.289 55.3828C123.289 55.3828 118.741 58.1368 115.811 59.3057C115.262 59.5247 114.893 59.4635 114.457 59.3909C114.211 59.3501 113.944 59.3057 113.611 59.3057C112.972 59.3057 112.567 59.0712 112.101 58.8006C111.892 58.6797 111.671 58.5516 111.411 58.4339C108.377 57.0607 104.372 53.6393 104.372 53.6393L108.772 68.4591ZM85.4553 50.1523L88.9748 64.1003L96.4536 66.2797L102.173 52.7675C102.173 52.7675 98.3276 55.039 95.5737 55.3828C95.4145 55.4027 95.2625 55.4227 95.1162 55.4419C94.01 55.5874 93.2278 55.6903 92.0543 55.3828C90.9297 55.0881 90.3116 54.6288 89.4794 54.0105C89.3207 53.8925 89.1541 53.7688 88.9748 53.6393C87.404 52.505 85.4553 50.1523 85.4553 50.1523ZM73.5772 57.1263L72.6973 41.8706C72.6973 41.8706 75.2374 45.3153 77.5366 46.6653C77.6709 46.7441 77.7926 46.8186 77.9076 46.889C78.3586 47.165 78.7056 47.3774 79.2963 47.537C80.2908 47.8058 81.9359 47.537 81.9359 47.537L77.5366 59.3057L73.5772 57.1263ZM66.0984 37.9478C66.2958 35.585 68.298 32.2814 68.298 32.2814L70.9376 37.5119L66.9782 43.1783C66.9782 43.1783 65.9259 40.0115 66.0984 37.9478ZM78.8564 18.7692C79.9009 17.8679 81.9359 17.0257 81.9359 17.0257V18.7692C81.9359 18.7692 79.9388 20.3859 79.2963 21.8204L79.1872 22.0636C78.5417 23.5002 78.0652 24.5609 77.9765 26.1791C77.8647 28.2188 78.1325 29.4971 78.8564 31.4096C79.4846 33.0695 80.5552 33.8198 81.8257 34.7103C82.2804 35.029 82.7608 35.3656 83.2557 35.7684C85.1703 37.3266 86.3662 38.068 88.5349 39.2554C91.7187 40.9986 93.7326 41.6241 97.154 42.6867L97.3335 42.7424C100.989 43.8778 103.143 44.2511 106.878 44.8985L107.012 44.9218C111.441 45.6896 113.963 45.9368 118.45 46.2294C124.45 46.6208 127.865 46.8273 133.848 46.2294C135.357 46.0786 136.678 45.9833 137.914 45.8942C141.096 45.6647 143.708 45.4764 147.486 44.4859C148.107 44.323 148.684 44.1756 149.229 44.0364C152.047 43.3163 154.036 42.8081 157.164 41.4348C159.685 40.3281 161.289 39.2752 163.469 37.8441C163.84 37.6001 164.23 37.3442 164.643 37.076C165.2 36.7141 165.715 36.4382 166.201 36.1781C167.244 35.6194 168.15 35.1338 169.042 34.0249C170 32.8342 170.372 31.9995 170.802 30.5379C171.475 28.2501 171.256 26.7758 170.802 24.4356C170.624 23.5194 170.272 22.8445 169.928 22.1822C169.536 21.4302 169.153 20.6947 169.042 19.641C168.953 18.7945 169.042 17.4616 169.042 17.4616C169.042 17.4616 170.785 18.6525 171.682 19.641C172.766 20.8351 173.263 21.6434 173.881 23.128C174.422 24.4256 174.581 25.2228 174.761 26.615C174.958 28.1345 174.958 29.0184 174.761 30.5379C174.581 31.9301 174.468 32.7472 173.881 34.0249C172.973 36.0041 171.641 36.8823 170.071 37.9177C169.467 38.3163 168.827 38.7383 168.162 39.2554C164.825 41.8519 162.729 43.0615 158.924 44.9218C154.975 46.8523 152.609 47.6799 148.365 48.8447C143.33 50.2268 140.372 50.5611 135.168 51.024C129.007 51.572 125.495 51.51 119.33 51.024C116.523 50.8028 114.905 50.5775 112.216 50.2031L111.851 50.1523C110.931 50.0242 110.085 49.9132 109.287 49.8084C105.887 49.362 103.344 49.0281 99.5331 47.9729C95.2919 46.7987 92.9433 45.9412 88.9748 44.05C88.6364 43.8888 88.3152 43.7371 88.0104 43.5932C85.7569 42.5292 84.3076 41.8449 81.9359 40.1271C81.6329 39.9077 81.3351 39.6961 81.0431 39.4887C79.1431 38.1391 77.4876 36.9632 76.2168 34.8966C75.453 33.6547 75.2028 32.8321 74.897 31.4096C74.4675 29.4118 74.4675 28.1769 74.897 26.1791C75.2028 24.7567 75.5653 23.9954 76.2168 22.6921C76.3147 22.4962 76.4069 22.3085 76.4956 22.1279C77.1537 20.7875 77.6215 19.8349 78.8564 18.7692ZM34.4234 373.136C31.7093 371.857 27.8244 369.213 27.8244 369.213V370.957C27.8244 370.957 30.3788 373.749 32.2237 375.315C36.07 378.581 39.3303 379.92 43.2425 381.526C44.7315 382.137 46.315 382.787 48.0612 383.597C55.1114 386.867 59.1895 388.463 66.5383 391.007C73.3115 393.352 77.2008 394.414 84.1355 396.237C92.4748 398.43 97.1977 399.535 105.692 401.032C106.575 401.188 107.38 401.334 108.14 401.472C111.208 402.031 113.522 402.452 117.13 402.776C123.632 403.358 127.343 403.328 133.848 402.776C136.821 402.523 138.758 402.217 141.266 401.82C141.963 401.71 142.705 401.593 143.526 401.468L144.052 401.388L144.817 401.272C150.599 400.393 154.223 399.843 160.244 398.417C166.673 396.894 170.417 395.651 176.289 393.701C176.79 393.535 177.306 393.363 177.841 393.186C179.057 392.784 180.177 392.419 181.235 392.075C185.922 390.552 189.397 389.423 194.558 387.084C198.753 385.183 201.492 383.597 204.765 381.701C206.074 380.943 207.468 380.135 209.076 379.238C214.442 376.243 222.714 371.392 222.714 371.392V369.213L218.314 371.392C218.314 371.392 213.787 361.549 210.836 355.265C209.774 353.004 208.862 351.144 207.992 349.369C206.631 346.592 205.372 344.022 203.797 340.445C200.62 333.231 198.91 329.143 196.318 321.703C196.223 321.432 196.131 321.166 196.039 320.905C195.898 320.501 195.761 320.109 195.627 319.726C193.913 314.836 192.759 311.544 191.479 306.011C190.35 301.131 189.949 297.739 189.464 293.626C189.282 292.083 189.088 290.439 188.839 288.576C188.427 285.495 188.38 283.134 188.332 280.721C188.291 278.611 188.248 276.461 187.959 273.756C186.081 256.156 185.566 243.222 185.008 229.195C184.658 220.398 184.291 211.171 183.56 200.093C183.295 196.077 183.03 192.806 182.775 189.653C182.425 185.32 182.092 181.208 181.8 175.684C181.44 168.872 181.446 163.441 181.452 158.106C181.459 151.989 181.466 145.999 180.92 138.199C180.01 125.182 177.401 105.073 177.401 105.073C177.401 105.073 176.903 138.285 177.401 159.557C177.424 160.556 177.447 161.528 177.469 162.478C177.811 177.226 178.023 186.352 179.161 201.837C179.547 207.101 179.777 211.24 180.005 215.338C180.249 219.735 180.49 224.086 180.92 229.733C181.602 238.675 181.826 245.98 182.042 253.032C182.336 262.594 182.616 271.693 184 283.782C184.254 286.001 184.451 287.978 184.635 289.833C185.174 295.258 185.611 299.646 187.079 306.011C188.501 312.173 189.836 315.942 191.708 321.225C192.052 322.197 192.414 323.219 192.798 324.318C196.007 333.487 198.13 338.521 202.037 347.419C206.322 357.179 213.915 371.999 213.915 371.999C213.915 371.999 210.386 375.388 207.756 377.059C204.584 379.074 198.958 380.982 198.958 380.982C198.958 380.982 193.059 366.735 189.719 357.444C189.403 356.565 189.104 355.737 188.818 354.946C186.965 349.816 185.686 346.274 184 340.445C181.428 331.553 180.371 326.448 178.721 317.344C176.843 306.985 176.273 300.898 175.326 290.782L175.201 289.448C174.367 280.552 174.103 274.689 173.76 267.098C173.665 264.982 173.563 262.732 173.441 260.244C172.693 244.934 172.381 236.342 172.122 221.015C171.967 211.888 172.018 205.122 172.072 197.934C172.11 192.925 172.149 187.712 172.122 181.351C172.088 173.473 171.988 167.092 171.891 160.914C171.764 152.807 171.642 145.048 171.682 134.712C171.732 121.774 172.122 101.586 172.122 101.586C172.122 101.586 175.85 100.66 177.401 98.9703C178.333 97.9549 179.161 95.9192 179.161 95.9192C179.161 95.9192 177.282 96.7573 176.081 97.3006C174.664 97.9414 173.509 98.5135 172.407 99.0597C170.689 99.9108 169.098 100.699 166.843 101.586C162.651 103.234 160.23 104.034 155.844 105.073C152.365 105.897 150.143 106.185 146.977 106.595C146.444 106.664 145.884 106.737 145.286 106.816C139.474 107.587 136.187 107.876 130.328 108.124C124.836 108.356 121.738 108.45 116.251 108.124C111.592 107.847 108.989 107.498 104.372 106.816C103.625 106.706 102.921 106.605 102.251 106.508C98.111 105.912 95.2166 105.496 90.7345 104.201C86.5069 102.98 84.2064 102.036 80.1762 100.278C76.6603 98.7441 71.3775 95.9192 71.3775 95.9192C71.3775 95.9192 71.828 97.0314 72.2574 97.6627C72.9125 98.6257 73.5898 99.081 74.4118 99.6335C74.7005 99.8275 75.0071 100.034 75.3369 100.278C78.3425 102.505 80.5412 103.35 83.7505 104.584C84.1543 104.739 84.576 104.901 85.0154 105.073C88.0687 106.261 90.1935 106.785 92.8783 107.447C93.7085 107.651 94.5923 107.869 95.5737 108.124C100.008 109.275 107.012 110.739 107.012 110.739V142.558V177.864V271.577V303.832C107.012 308.378 107.136 312.227 107.254 315.867C107.47 322.586 107.664 328.593 107.012 336.958C106.304 346.031 105.734 351.137 103.932 360.06C101.182 373.681 93.3741 394.058 93.3741 394.058C93.3741 394.058 83.8847 392.634 77.9765 391.007C71.6639 389.268 67.8688 387.633 62.5297 385.333C61.5765 384.922 60.5741 384.49 59.4994 384.033C54.9792 382.109 48.0612 378.802 48.0612 378.802C48.0612 378.802 52.3236 367.256 55.54 360.06C56.9986 356.796 58.2766 354.331 59.5617 351.851C60.7984 349.466 62.0417 347.067 63.4588 343.932L63.6749 343.454C67.5454 334.894 69.7964 329.915 72.6973 320.831C75.2615 312.801 76.4388 308.192 77.9765 299.909C78.84 295.258 79.2049 292.092 79.6561 288.177C79.8113 286.831 79.9768 285.395 80.1762 283.782C83.6653 255.534 84.1367 239.069 84.9266 211.474C84.9557 210.456 84.9853 209.424 85.0154 208.375L85.0472 207.27C85.7177 183.964 86.1045 170.522 85.0154 146.917C84.8716 143.8 84.8354 141.079 84.8014 138.521C84.722 132.547 84.6544 127.465 83.2557 120.328C82.4055 115.99 81.9359 109.431 81.9359 109.431C81.9359 109.431 81.0844 112.075 80.6161 113.79C79.4725 117.979 78.9916 120.385 78.4164 124.687C77.7207 129.891 77.9416 133.756 78.1795 137.918C78.3351 140.638 78.4978 143.486 78.4164 146.917C78.2268 154.91 77.8268 160.573 77.3744 166.98C77.1419 170.272 76.8955 173.761 76.6567 177.864C75.9476 190.045 75.4594 200.542 75.0001 210.418C74.0085 231.738 73.1517 250.161 70.4977 276.372C70.1694 279.614 69.9371 282.435 69.7189 285.085C69.2147 291.209 68.7854 296.424 67.4182 303.832C65.2444 315.61 63.6783 322.236 59.4994 333.471C57.5263 338.776 55.8388 342.305 53.8386 346.488C53.0076 348.225 52.1226 350.076 51.1407 352.214C46.9708 361.293 40.1425 375.315 40.1425 375.315C40.1425 375.315 36.5844 374.154 34.4234 373.136ZM29.5841 722.272C29.5841 722.272 38.5617 727.329 44.5418 730.118C51.585 733.403 55.6484 735.046 63.0189 737.528C76.0403 741.913 83.7582 743.191 97.3335 745.374C97.9895 745.479 98.6235 745.582 99.239 745.681C106.636 746.876 111.351 747.638 119.33 747.989C129.984 748.457 136.048 748.169 146.606 746.681C154.601 745.554 159.462 744.251 166.466 742.373C167.559 742.08 168.705 741.773 169.922 741.451C177.441 739.459 181.784 738.055 188.83 735.778L188.835 735.776L188.838 735.775L190.159 735.349C191.713 734.846 193.098 734.414 194.397 734.009L194.401 734.008C198.15 732.838 201.189 731.89 205.556 730.118C206.449 729.756 207.258 729.443 208.019 729.148C210.532 728.175 212.516 727.407 215.235 725.759C217.024 724.675 219.634 722.708 219.634 722.708C219.634 722.708 218.057 722.065 216.995 721.836C213.805 721.15 211.606 722.357 209.151 723.705C207.805 724.443 206.382 725.224 204.677 725.759C202.078 726.575 199.818 727.31 197.697 728.001C192.547 729.677 188.209 731.09 181.8 732.733C172.45 735.131 166.889 736.105 157.781 737.701L156.284 737.964C154.551 738.268 153.022 738.559 151.588 738.832C147.637 739.584 144.401 740.201 139.567 740.579C133.47 741.056 129.786 740.897 124.1 740.651C123.68 740.633 123.249 740.615 122.806 740.596L122.41 740.579C113.318 740.196 107.943 739.445 99.4842 738.264L99.402 738.252C98.7329 738.159 98.0445 738.063 97.3335 737.964L97.3037 737.96L97.2986 737.959C85.9073 736.375 79.4724 735.48 68.298 732.733C60.1206 730.723 55.567 729.407 47.6213 726.631C45.8965 726.028 44.5127 725.338 43.1963 724.681C41.068 723.62 39.1159 722.646 36.1831 722.272C33.6271 721.946 29.5841 722.272 29.5841 722.272ZM237.671 487.771C238.873 487.723 240.751 487.771 240.751 487.771C240.751 487.771 237.629 490.298 235.472 491.694C231.902 494.004 229.358 495.029 225.89 496.427C225.17 496.717 224.411 497.023 223.594 497.361C216.186 500.416 210.747 501.645 204.333 503.093C201.617 503.706 198.727 504.359 195.438 505.206C193.181 505.788 191.152 506.326 189.245 506.831C182.772 508.547 177.71 509.888 169.922 511.309C161.057 512.925 156.033 513.669 147.046 514.36C136.431 515.175 129.781 514.916 120.253 514.545C118.711 514.485 117.093 514.422 115.371 514.36C114.546 514.33 113.751 514.302 112.98 514.275C104.089 513.961 98.4108 513.76 88.9748 512.616C77.0011 511.164 70.3365 509.792 58.6196 506.95C46.5837 504.03 39.7979 502.285 28.2643 497.796C26.8662 497.252 25.6062 496.794 24.4225 496.363C20.8775 495.072 18.0177 494.031 14.1865 491.694C11.6694 490.159 8.0275 487.335 8.0275 487.335H11.547C11.547 487.335 18.7319 490.145 23.4251 491.694C30.795 494.126 35.6343 495.238 42.2467 496.757C43.6512 497.079 45.1357 497.42 46.7414 497.796C61.8911 501.343 70.4424 503.342 85.8953 505.206C93.7699 506.156 98.2105 506.532 106.132 506.95C118.656 507.61 125.718 507.505 138.247 506.95C154.813 506.216 164.14 505.389 180.48 502.591C195.797 499.968 204.25 497.673 219.194 493.438C221.909 492.668 224.122 491.725 226.222 490.829C229.741 489.329 232.946 487.963 237.671 487.771Z" fill="#DF7C20"/>
<path d="M162.003 106.816C162.003 106.816 156.982 108.678 153.645 109.431C149.593 110.346 143.086 110.739 143.086 110.739C143.086 110.739 142.475 153.244 142.646 180.479C142.732 194.097 142.964 201.731 143.086 215.349C143.393 249.392 143.086 268.48 143.086 302.524C143.086 314.61 142.263 321.413 143.086 333.471C143.612 341.161 144.036 345.479 145.286 353.086C146.585 360.995 147.723 365.363 149.685 373.136C151.942 382.073 156.284 395.802 156.284 395.802C156.284 395.802 167.384 393.235 174.321 391.007C178.664 389.612 185.32 387.084 185.32 387.084C185.32 387.084 179.096 370.722 175.641 360.06C173.448 353.291 171.869 349.575 170.362 342.625C169.484 338.575 169.152 336.269 168.602 332.164C167.244 322.027 167.76 316.226 167.282 306.011C165.627 270.623 165.799 250.74 164.203 215.349C163.435 198.323 162.517 188.797 162.003 171.762C161.239 146.41 162.003 106.816 162.003 106.816Z" fill="#DF7C20"/>
<path d="M116.251 112.047H122.849H129.448C129.448 112.047 129.226 141.801 129.448 160.865C129.635 176.868 130.18 185.833 130.328 201.837C130.44 213.922 130.253 220.699 130.328 232.784C130.491 259.002 131.444 273.691 131.648 299.909C131.782 317.101 131.648 326.74 131.648 343.932C131.648 352.273 132.051 356.959 131.648 365.29C131.351 371.432 130.749 374.847 130.328 380.982C129.874 387.614 129.448 397.981 129.448 397.981H113.611C113.611 397.981 115.955 389.525 117.13 384.033C118.683 376.778 119.319 372.653 120.21 365.29C120.929 359.353 121.163 356.003 121.53 350.035C122.791 329.47 120.739 317.89 120.21 297.294C119.707 277.718 119.461 266.742 118.89 247.168C118.413 230.826 117.998 221.668 117.57 205.324C116.618 168.906 116.251 112.047 116.251 112.047Z" fill="#DF7C20"/>
<path d="M136.487 493.438H144.846C144.846 493.438 143.678 470.064 143.086 455.081C142.703 445.379 142.752 439.929 142.206 430.236C141.919 425.126 141.327 417.159 141.327 417.159C141.327 417.159 140.112 422.714 139.567 426.313C138.494 433.401 138.745 437.469 138.247 444.62C137.524 455.001 136.8 460.807 136.487 471.208C136.226 479.885 136.487 493.438 136.487 493.438Z" fill="#DF7C20"/>
</svg>
