<svg width="265" height="822" viewBox="0 0 265 822" fill="none" xmlns="http://www.w3.org/2000/svg">
<path d="M116.195 114.16C116.195 114.16 107.865 115.616 103.241 118.208C97.9715 121.161 95.3667 123.782 91.906 128.733C87.6657 134.8 86.5794 139.234 85.4289 146.545C84.4951 152.48 83.6152 156.201 85.4289 161.928C86.8859 166.53 88.8489 168.719 91.906 172.454C94.1719 175.222 98.3831 178.931 98.3831 178.931C98.3831 178.931 90.0595 179.772 85.4289 182.169C80.0647 184.947 77.6871 187.839 74.0939 192.695C70.7294 197.241 69.6854 200.385 67.6167 205.649C65.5676 210.864 64.7603 213.938 63.5685 219.413C62.7503 223.172 61.9492 229.129 61.9492 229.129C61.9492 229.129 54.7325 234.334 51.4239 238.844C47.7402 243.866 46.7508 247.457 44.9468 253.418C43.5458 258.047 43.0459 260.755 42.5178 265.563C41.862 271.534 42.5178 280.946 42.5178 280.946C42.5178 280.946 37.1883 286.052 34.4214 289.852C31.8357 293.403 30.4454 295.514 28.7539 299.568C26.5088 304.948 26.0644 308.337 25.5153 314.141C25.0985 318.548 24.4372 321.183 25.5153 325.476C26.2738 328.496 28.7539 332.763 28.7539 332.763C28.7539 332.763 26.8309 336.737 25.5153 339.24C24.001 342.122 22.346 343.392 21.4671 346.527C20.4428 350.18 21.4671 356.243 21.4671 356.243C21.4671 356.243 17.9491 355.715 15.7996 356.243C13.3241 356.851 12.2252 358.026 10.1321 359.481C7.73867 361.145 6.25159 362.036 4.46465 364.339C2.73107 366.573 2.09149 368.124 1.22608 370.816C-0.515519 376.234 -0.298262 379.906 1.22608 385.39C2.06014 388.39 2.45185 390.3 4.46465 392.676C6.2227 394.752 7.46304 396.201 10.1321 396.725C11.3733 396.968 13.3707 396.725 13.3707 396.725C13.3707 396.725 14.8824 421.889 15.7996 438.016C17.1302 461.41 16.9397 474.592 19.0382 497.93C20.5205 514.414 21.6339 523.636 23.8961 540.031C28.2446 571.548 30.9775 589.265 38.4696 620.186C41.6303 633.231 43.3595 640.574 47.3757 653.381C51.2961 665.883 53.031 673.151 58.7107 684.957C62.332 692.485 69.236 703.579 69.236 703.579C69.236 703.579 58.7008 706.57 52.2335 709.247C45.7006 711.95 41.7585 713.185 36.0407 717.343C30.6163 721.288 23.8961 729.488 23.8961 729.488V772.399C23.8961 772.399 25.9374 778.527 27.9443 782.114C30.4762 786.64 32.2641 789.086 36.0407 792.64C40.8981 797.211 44.7678 798.335 50.6143 801.546L51.4395 801.999C58.0016 805.605 61.9682 807.784 69.236 810.452C77.8028 813.596 82.9563 814.336 91.906 816.119C100.063 817.745 104.686 818.477 112.957 819.358C131.821 821.368 142.726 821.833 161.535 819.358C171.126 818.096 176.505 817.092 185.825 814.5C194.882 811.981 199.964 810.355 208.494 806.404C216.074 802.892 220.809 801.355 227.116 795.878C232.374 791.313 234.819 788.055 238.451 782.114C240.664 778.495 243.309 772.399 243.309 772.399V734.345C243.309 734.345 240.97 728.498 238.451 725.439C234.993 721.24 231.726 720.232 227.116 717.343C221.364 713.738 217.919 712.044 211.733 709.247C206.169 706.731 197.16 703.579 197.16 703.579C197.16 703.579 204.59 692.523 208.494 684.957C214.554 673.217 216.627 665.969 220.639 653.381C224.994 639.718 226.446 631.758 229.545 617.757C233.556 599.635 235.259 589.039 238.111 571.296L238.451 569.178C242.754 542.422 244.665 527.325 247.357 500.359C248.871 485.205 249.592 476.692 250.596 461.496C252.265 436.239 253.025 396.725 253.025 396.725C253.025 396.725 257.423 394.816 259.502 392.676C261.77 390.342 262.514 388.476 263.55 385.39C265.362 379.994 265.601 376.125 263.55 370.816C262.475 368.034 261.508 366.547 259.502 364.339C257.376 361.999 253.025 359.481 253.025 359.481C253.025 359.481 254.531 351.591 255.454 346.527C256.432 341.157 257.637 338.216 257.883 332.763C258.205 325.605 257.212 321.466 255.571 314.629L255.454 314.141C254.055 308.307 253.109 305.015 250.596 299.568C247.619 293.116 245.606 289.491 240.88 284.184C237.003 279.831 229.545 274.469 229.545 274.469C229.545 274.469 230.119 267.523 229.545 263.134C229.038 259.256 228.457 257.092 227.116 253.418C225.662 249.433 224.688 247.18 222.258 243.702C220.844 241.678 218.21 238.844 218.21 238.844C218.21 238.844 218.886 231.394 218.21 226.7C217.455 221.454 216.768 218.361 214.162 213.746C212.171 210.22 207.685 205.649 207.685 205.649C207.685 205.649 208.83 197.622 207.685 192.695C206.66 188.285 205.455 185.856 202.827 182.169C200.491 178.893 198.538 177.567 195.54 174.883C192.524 172.182 187.444 168.406 187.444 168.406C187.444 168.406 190.276 162.113 191.492 157.88C193.085 152.335 194.212 149.069 193.921 143.307C193.658 138.099 192.424 135.267 190.682 130.352C188.934 125.419 187.971 122.527 185.015 118.208C182.613 114.697 180.971 112.864 177.728 110.111C174.049 106.988 171.757 105.231 167.203 103.634C163.278 102.259 160.832 101.829 156.677 102.015C153.456 102.159 148.581 103.634 148.581 103.634C148.581 103.634 147.025 94.7867 146.962 89.0606C146.892 82.7058 147.47 79.1251 148.581 72.8678C150.434 62.4306 151.855 56.3992 156.677 46.9592C159.59 41.2579 161.639 38.2378 165.583 33.1953C169.306 28.4376 171.897 26.1902 176.109 21.8603C178.603 19.2963 182.586 15.3832 182.586 15.3832C182.586 15.3832 170.135 10.7213 162.345 7.28678C156.262 4.6051 146.962 0 146.962 0C146.962 0 140.384 9.2674 136.436 15.3832C132.819 20.9872 130.444 23.9569 127.53 29.9568C123.599 38.0515 121.211 43.1981 118.624 51.8171C116.177 59.9713 115.673 64.4252 114.576 72.8678C113.517 81.0201 114.242 85.7045 114.576 93.9185C114.898 101.842 116.195 114.16 116.195 114.16Z" fill="#F0E4BE"/>
<path fill-rule="evenodd" clip-rule="evenodd" d="M27.1347 366.768C27.1347 366.768 39.2944 371.759 47.3758 374.055C60.0263 377.649 67.5403 377.947 80.5711 379.722C97.8732 382.08 107.646 383.298 125.101 383.771C142.497 384.241 152.26 384.79 169.632 383.771C182.293 383.027 189.458 381.488 202.017 379.722C213.193 378.151 219.986 376.89 230.355 372.436C235.688 370.144 243.309 366.768 243.309 366.768C243.309 366.768 248.774 368.732 250.596 371.626C251.985 373.833 252.302 375.497 252.215 378.103C252.139 380.404 251.91 381.881 250.596 383.771C249.44 385.433 248.235 385.89 246.548 387.009C241.046 390.659 236.706 391.681 230.355 393.486C219.364 396.61 213.169 397.419 202.017 399.154C190.701 400.914 184.299 401.646 172.87 402.392C156.464 403.464 147.211 404.012 130.769 404.012C118.438 404.012 111.499 403.404 99.1929 402.392C87.7787 401.454 81.3676 400.88 70.0458 399.154C56.0078 397.013 47.9877 396.063 34.4215 391.867C28.9759 390.183 25.2166 390.431 20.6576 387.009C18.5117 385.399 16.9099 384.594 15.7997 382.151C14.4913 379.273 14.7626 377.042 15.7997 374.055C16.6919 371.485 17.5998 369.918 19.8479 368.387C22.2573 366.746 27.1347 366.768 27.1347 366.768ZM23.8961 374.055C25.6769 373.401 28.754 374.055 28.754 374.055C28.754 374.055 44.9524 378.386 55.4722 380.532C67.0848 382.901 73.6627 383.97 85.429 385.39C97.3945 386.834 104.154 387.31 116.195 387.819C130.095 388.406 137.917 388.344 151.82 387.819C161.635 387.448 167.133 387.042 176.919 386.199C190.556 385.026 198.257 384.549 211.733 382.151C216.495 381.304 223.878 379.722 223.878 379.722V383.771C223.878 383.771 211.567 385.914 203.637 387.009C191.669 388.662 184.916 389.313 172.87 390.248C159.3 391.3 138.056 391.867 138.056 391.867H116.195V395.915C116.195 395.915 102.361 395.751 93.5254 395.106C87.187 394.642 83.6474 394.202 77.3325 393.486C67.8238 392.409 62.4437 392.038 53.0433 390.248C45.0578 388.726 40.5354 387.896 32.8022 385.39C29.2816 384.249 23.8961 382.151 23.8961 382.151C23.8961 382.151 21.2851 381.173 20.6576 379.722C20.1556 378.562 20.1556 377.645 20.6576 376.484C21.2851 375.033 22.4122 374.6 23.8961 374.055Z" fill="#527195"/>
<path fill-rule="evenodd" clip-rule="evenodd" d="M28.754 395.915C28.754 395.915 46.4214 400.348 57.9011 402.392C73.7891 405.222 82.8966 405.949 98.8985 407.227L99.1929 407.25C111.501 408.233 118.422 408.824 130.769 408.869C144.064 408.918 151.506 408.103 164.774 407.25C179.972 406.274 188.537 405.997 203.637 404.012C217.965 402.127 240.071 397.534 240.071 397.534C240.071 397.534 240.85 427.158 240.071 446.113C239.394 462.589 238.341 471.793 236.832 488.214C233.743 521.839 232.267 540.8 226.307 574.036L226.017 575.65C222.256 596.631 220.05 608.939 214.162 629.902C208.376 650.503 205.631 662.438 196.35 681.719C190.328 694.228 187.339 701.748 178.538 712.485C173.152 719.056 169.985 722.816 163.155 727.868C158.708 731.158 156.121 733.042 151.01 735.155C146.474 737.031 143.734 737.767 138.865 738.394C134.161 739 131.387 739.245 126.721 738.394C120.594 737.276 117.512 735.08 112.147 731.917C103.461 726.795 99.3231 720.912 92.7157 713.295C82.9756 702.067 80.3103 694.615 74.094 681.719C65.8003 664.514 63.2154 653.915 57.9011 635.569C55.0846 625.846 53.718 620.33 51.424 610.47C45.9699 587.029 44.3268 573.569 40.8986 549.747C37.815 528.319 36.5606 516.234 34.4215 494.692C32.9789 480.164 32.1877 472.013 31.1829 457.448C29.5278 433.456 28.754 395.915 28.754 395.915ZM61.9493 419.395C56.2222 418.304 47.3758 416.156 47.3758 416.156C47.3758 416.156 46.8279 438.372 47.3758 452.59C48.0724 470.668 49.8565 480.716 51.424 498.74C53.0188 517.077 53.2933 527.422 55.4722 545.699C57.8967 566.036 59.8374 577.377 63.5686 597.516C67.3985 618.188 68.6014 630.086 74.9036 650.143C79.5856 665.043 82.0696 673.636 89.4772 687.386C95.6329 698.813 98.7199 705.943 108.099 714.914C112.989 719.592 115.598 722.883 121.863 725.44L121.908 725.458C126.073 727.158 128.702 728.231 133.198 727.868C136.488 727.604 141.294 725.44 141.294 725.44C141.294 725.44 136.218 724.342 133.198 723.011C128.22 720.816 125.91 718.549 121.863 714.914C112.336 706.359 109.805 698.825 104.051 687.386C95.558 670.502 93.9489 659.6 89.4772 641.237C84.3978 620.378 83.2652 608.289 80.5711 586.991C76.8705 557.736 75.7439 541.17 74.9036 511.694C73.9031 476.599 77.3325 421.824 77.3325 421.824C77.3325 421.824 67.9238 420.533 61.9493 419.395Z" fill="#527195"/>
<path d="M39.2793 764.302C39.2793 764.302 44.8793 769.669 48.9951 772.399C55.6031 776.782 60.2163 777.646 67.6168 780.495L68.3905 780.793C77.527 784.311 82.9398 786.396 92.7157 788.592C101.441 790.552 106.476 791.059 115.386 791.83C129.246 793.031 137.145 792.974 151.01 791.83C160.235 791.069 165.41 790.393 174.49 788.592C186.077 786.293 192.603 784.718 203.637 780.495C210.773 777.764 215.098 776.648 221.449 772.399C225.554 769.652 231.165 764.302 231.165 764.302C231.165 764.302 229.849 770.981 227.926 774.828C226.003 778.674 224.55 780.754 221.449 783.734C216.614 788.38 212.292 790.457 206.291 793.341L206.066 793.45C198.021 797.317 193.568 798.182 185.015 800.736C176.696 803.22 171.843 803.271 163.155 804.785C144.776 807.986 133.942 808.422 115.386 806.404C106.445 805.431 101.462 804.025 92.7157 802.356C82.6903 800.442 77.021 799.035 67.6168 795.069C62.4053 792.871 59.2583 791.889 54.6625 788.592C49.9393 785.203 47.2668 782.965 44.1372 778.066C42.6146 775.683 41.8498 774.252 40.8986 771.589C39.9182 768.844 39.2793 764.302 39.2793 764.302Z" fill="#527195"/>
<path fill-rule="evenodd" clip-rule="evenodd" d="M183.396 712.485C183.396 712.485 192.945 714.4 198.779 716.534C204.358 718.574 207.387 720.06 212.543 723.011C217.871 726.06 221.69 727.101 225.497 731.917C228.128 735.244 229.234 737.541 230.355 741.632C231.444 745.608 232.043 748.13 231.165 752.158C230.411 755.612 229.298 757.472 227.116 760.254C224.618 763.441 222.353 764.433 219.02 766.731C213.431 770.585 209.867 772.131 203.637 774.828C194.826 778.641 189.466 779.766 180.157 782.115C170.477 784.557 164.974 785.814 155.058 786.972C139.67 788.771 130.791 788.623 115.386 786.972C102.892 785.634 95.9168 784.155 83.8097 780.793C74.1394 778.108 68.219 777.404 59.5204 772.399C54.4228 769.465 51.4822 767.703 47.3758 763.493C43.5776 759.598 40.5711 757.442 39.2793 752.158C38.4535 748.779 38.5595 746.654 39.2793 743.252C40.1573 739.102 40.1147 737.032 42.5179 733.536C44.6749 730.399 47.1914 728.775 50.6143 726.249C54.7168 723.222 58.9435 721.917 63.5686 719.772C68.7397 717.374 71.8964 716.629 77.3325 714.914C81.723 713.529 88.6675 711.676 88.6675 711.676V714.914C88.6675 714.914 81.723 716.768 77.3325 718.153C71.8964 719.867 68.6595 720.447 63.5686 723.011C56.5088 726.566 51.0604 728.162 47.3758 735.155C45.9775 737.809 45.4147 739.479 44.9468 742.442C44.503 745.253 44.2811 746.962 44.9468 749.729C45.7085 752.894 47.0241 754.425 48.9951 757.016C51.5706 760.401 53.5936 761.882 57.0915 764.302C62.2128 767.847 65.8298 768.603 71.665 770.78C80.8628 774.211 86.2676 775.663 95.9543 777.257C105.957 778.903 111.73 778.555 121.863 778.876C132.292 779.206 138.182 779.728 148.581 778.876C159.771 777.959 176.919 774.018 176.919 774.018C176.919 774.018 156.721 774.868 143.723 774.828C133.586 774.797 127.913 775.724 117.815 774.828C109.259 774.068 104.376 774.086 95.9543 772.399C87.224 770.649 81.9307 770.148 74.094 765.922C69.3061 763.339 66.4729 761.8 62.759 757.825C60.124 755.005 58.3417 753.38 57.0915 749.729C56.0621 746.723 55.6542 744.747 56.2818 741.632C56.8404 738.86 57.8295 737.422 59.5204 735.155C61.4631 732.551 63.1007 731.445 65.7231 729.673L65.9975 729.488C68.9261 727.508 70.8232 726.781 74.094 725.44C78.073 723.808 80.5039 723.449 84.6193 722.201C87.7782 721.243 92.7157 719.772 92.7157 719.772C92.7157 719.772 94.5618 723.304 95.9543 725.44C97.9236 728.459 99.0969 730.153 101.622 732.726C104.834 736 107.146 737.427 110.945 739.771L111.338 740.013C116.392 743.134 119.335 745.064 125.101 746.49C132.161 748.236 136.583 747.87 143.723 746.49C148.632 745.542 151.449 744.781 155.868 742.442C160.059 740.223 162.048 738.317 165.584 735.155C170.594 730.674 172.899 727.589 176.919 722.201C179.645 718.546 183.396 712.485 183.396 712.485ZM66.7712 731.917C69.1391 730.348 72.0911 729.077 74.9036 728.678C76.1558 728.501 78.1422 728.678 78.1422 728.678V730.297C78.1422 730.297 75.5605 731.609 74.094 732.726C72.3156 734.081 71.3453 734.955 70.0457 736.775C68.8129 738.501 68.1468 739.579 67.6168 741.632C66.9848 744.082 66.8729 745.692 67.6168 748.11C68.4167 750.709 69.7298 751.866 71.665 753.777C75.1863 757.255 78.3898 757.645 83 759.445C88.7867 761.704 92.2922 762.272 98.3832 763.493C105.882 764.995 110.181 765.458 117.815 765.922C125.074 766.362 129.137 765.849 136.436 765.922C144.681 766.004 152.629 765.922 152.629 765.922C152.629 765.922 151.177 766.686 146.962 767.541C140.447 768.862 136.605 769.812 129.959 769.97C123.321 770.128 119.587 770.33 112.957 769.97C105.007 769.538 100.523 769.098 92.7157 767.541C86.6237 766.326 82.8682 766.312 77.3325 763.493C74.2849 761.941 72.8355 760.613 70.0457 758.635C67.4666 756.806 65.7518 756.064 63.5686 753.777C61.6906 751.81 60.3203 750.709 59.5204 748.11C58.7961 745.756 58.9437 744.915 59.4763 741.884L59.5204 741.632C60.0884 738.394 61.1397 736.775 61.1397 736.775C61.1397 736.775 64.3501 733.521 66.7712 731.917Z" fill="#527195"/>
<path fill-rule="evenodd" clip-rule="evenodd" d="M132.388 127.114H125.911C123.698 127.114 122.447 126.905 120.244 127.114C117.341 127.388 115.623 127.555 112.957 128.733C109.659 130.19 107.924 131.587 105.67 134.401C103.282 137.382 102.517 139.593 101.622 143.307C100.51 147.917 100.987 150.751 101.622 155.451L101.633 155.531C102.15 159.358 102.456 161.625 104.051 165.167C105.275 167.887 106.238 169.313 108.099 171.644C110.752 174.969 112.68 176.536 116.195 178.931C119.701 181.319 121.874 182.486 125.911 183.789C128.98 184.779 130.805 185.03 134.007 185.408C138.717 185.964 141.437 185.919 146.152 185.408C150.653 184.92 153.315 184.737 157.487 182.979C161.689 181.208 163.665 179.38 167.203 176.502C171.018 173.398 173.515 171.775 176.109 167.596C178.745 163.348 180.604 160.552 181.776 155.451C183.482 148.03 184.232 143.2 181.776 136.02C180.494 132.271 179.103 130.419 176.918 127.114C174.931 124.106 172.481 122.035 169.632 119.827C167.396 118.095 165.876 117.358 163.155 116.588C159.199 115.471 156.674 115.858 152.629 116.588C150.364 116.997 148.924 118.624 146.962 119.827C144.266 121.479 142.104 124.685 142.104 124.685C142.104 124.685 145.162 125.558 146.152 127.114C147.34 128.981 147.153 130.807 146.152 132.781C145.243 134.573 143.963 135.163 142.146 136L142.104 136.02C139.789 137.087 138.126 137.329 135.627 136.83C133.547 136.414 131.717 136.298 130.769 134.401C130.062 132.987 130.385 131.886 130.769 130.352C131.112 128.981 132.388 127.114 132.388 127.114ZM127.53 134.401C126.823 132.987 125.776 132.517 124.292 131.972C122.511 131.318 121.286 131.56 119.434 131.972C117.363 132.432 116.413 131.721 114.576 132.781C112.601 133.921 111.314 134.391 109.718 136.02C106.841 138.956 106.559 141.723 105.67 145.736C104.575 150.675 105.539 153.943 107.289 158.69C108.321 161.489 111.337 165.167 111.337 165.167C111.337 165.167 113.98 168.88 115.386 170.835C117.793 174.181 122.672 176.502 122.672 176.502C122.672 176.502 119.552 171.157 117.815 167.596C116.449 164.797 115.541 163.27 114.576 160.309C113.672 157.538 113.231 155.925 112.957 153.022C112.748 150.819 112.429 149.504 112.957 147.355C113.565 144.879 114.601 143.676 116.195 141.687C117.314 140.292 117.79 140.773 119.434 140.068C121.178 139.321 122.454 139.237 124.292 138.449C125.591 137.892 126.746 138.006 127.53 136.83C128.407 135.514 128.237 135.815 127.53 134.401Z" fill="#9C0000"/>
<path d="M135.627 128.733C135.627 128.733 134.36 129.53 134.007 130.352C133.634 131.224 134.007 132.781 134.007 132.781C134.007 132.781 135.99 132.934 137.246 132.781C138.54 132.624 139.453 132.768 140.485 131.972C141.604 131.108 142.104 128.733 142.104 128.733L139.675 127.923C139.675 127.923 137.988 118.577 137.246 112.54C136.202 104.044 135.517 99.2396 135.627 90.6799C135.72 83.3808 136.113 79.2693 137.246 72.0582C138.354 65.0112 139.166 61.0547 141.294 54.246C143.116 48.4175 144.092 45.0625 146.962 39.6725C150.261 33.4757 153.006 30.503 157.487 25.0989C160.202 21.8245 164.774 17.0025 164.774 17.0025L157.487 13.7639C157.487 13.7639 150.197 20.4919 146.962 25.0989C143.129 30.5574 142.457 33.6106 139.675 39.6725C136.504 46.5811 135.822 50.9124 134.007 58.2942C131.86 67.0274 130.717 72.003 129.959 80.9642C129.266 89.1558 128.978 93.8529 129.959 102.015C130.811 109.097 132.63 112.828 134.007 119.827C134.69 123.296 135.627 128.733 135.627 128.733Z" fill="#9C0000"/>
<path fill-rule="evenodd" clip-rule="evenodd" d="M185.015 182.169C185.015 182.169 190.002 185.061 192.302 187.837C195.56 191.771 196.734 194.891 197.16 199.982C197.563 204.801 197.471 208.141 194.731 212.126C192.147 215.884 189.128 216.635 185.015 218.603C178.58 221.682 174.293 221.866 167.203 222.652C160.289 223.417 156.347 222.652 149.391 222.652H128.34C120.435 222.652 115.99 222.182 108.099 222.652C102.069 223.01 98.4825 222.473 92.7157 224.271C89.0684 225.408 87.0869 226.356 83.8096 228.319C81.4764 229.717 78.1421 232.367 78.1421 232.367C78.1421 232.367 77.2808 223.909 78.1421 218.603C79.1681 212.284 80.1556 208.477 83.8096 203.22C87.3917 198.067 90.2368 195.283 95.9543 192.695C100.927 190.444 104.292 190.855 109.718 190.266C118.52 189.311 123.535 190.266 132.388 190.266C142.506 190.266 148.235 191.329 158.297 190.266C164.035 189.66 167.371 189.584 172.87 187.837C177.859 186.253 185.015 182.169 185.015 182.169ZM175.299 196.743C179.449 194.853 185.015 190.266 185.015 190.266C185.015 190.266 176.151 193.483 170.441 194.314C162.252 195.506 157.616 194.969 149.391 195.124C141.487 195.273 137.049 194.827 129.15 195.124C120.91 195.433 116.093 193.208 108.099 195.124C103.131 196.314 100.158 197.447 95.9543 199.982C93.4579 201.487 92.3208 202.751 90.2868 204.839C87.7713 207.422 85.9867 208.791 84.6193 212.126C83.0556 215.941 83.8096 222.652 83.8096 222.652C83.8096 222.652 85.334 217.965 87.0482 215.365C89.6356 211.441 91.9586 209.744 95.9543 207.268C99.4483 205.103 101.713 204.333 105.67 203.22C110.578 201.84 113.54 201.973 118.624 201.601C125.877 201.07 129.978 201.862 137.246 201.601C145.486 201.304 150.13 201.116 158.297 199.982C164.992 199.052 169.148 199.545 175.299 196.743Z" fill="#E476B8"/>
<path fill-rule="evenodd" clip-rule="evenodd" d="M201.208 218.603C201.208 218.603 205.145 224.178 206.066 228.319C206.889 232.023 206.808 234.314 206.066 238.035C205.18 242.474 203.917 244.933 201.208 248.56C196.695 254.603 191.929 256.073 185.015 259.085C176.998 262.578 171.77 262.442 163.155 263.943C152.181 265.856 145.916 266.246 134.817 267.182C122.513 268.219 115.507 267.381 103.241 268.801C93.6885 269.907 88.3172 270.667 78.9518 272.849C70.2803 274.87 57.0914 279.327 57.0914 279.327C57.0914 279.327 56.1285 269.873 57.0914 263.943C57.941 258.712 58.6105 255.647 61.1397 250.989C64.4486 244.895 67.5031 241.864 73.2843 238.035C78.1305 234.825 81.4826 234.045 87.0482 232.367C95.0117 229.966 99.8216 229.946 108.099 229.129C118.487 228.103 124.379 228.467 134.817 228.319C143.986 228.189 149.136 228.707 158.297 228.319C168.764 227.876 174.76 228.038 185.015 225.89C189.819 224.884 193.174 225.516 197.16 222.652C198.975 221.347 201.208 218.603 201.208 218.603ZM190.682 233.987C193.49 232.139 197.16 228.319 197.16 228.319C197.16 228.319 186.379 231.167 179.347 232.367C174.631 233.172 171.969 233.561 167.203 233.987C157.44 234.859 151.906 233.987 142.104 233.987H121.053C114.097 233.987 110.142 233.109 103.241 233.987C96.7748 234.809 93.1032 235.621 87.0482 238.035C82.0551 240.025 79.2513 241.351 74.9036 244.512C71.824 246.751 69.8544 247.909 67.6168 250.989C65.2011 254.315 64.2693 256.654 63.5686 260.705C63.0296 263.82 63.5686 268.801 63.5686 268.801C63.5686 268.801 65.5817 263.595 67.6168 260.705C70.9732 255.938 74.0285 254.112 78.9518 250.989C83.3715 248.186 86.1959 247.159 91.0964 245.322C96.6271 243.247 99.8341 242.186 105.67 241.273C113.48 240.052 118.006 239.654 125.911 239.654C133.183 239.654 137.261 241.273 144.533 241.273C151.805 241.273 155.909 241.894 163.155 241.273C170.509 240.643 174.818 240.497 181.776 238.035C185.378 236.76 187.491 236.087 190.682 233.987Z" fill="#E476B8"/>
<path fill-rule="evenodd" clip-rule="evenodd" d="M208.495 248.56C208.495 248.56 210.348 252.088 211.733 254.228C213.452 256.882 215.501 257.737 216.591 260.705C217.899 264.266 218.121 266.575 218.21 270.42C218.314 274.891 217.745 277.482 216.591 281.755C215.563 285.562 214.126 287.475 211.768 290.615L211.733 290.661C207.404 296.427 203.341 298.284 197.16 301.996C189.257 306.742 184.139 308.287 175.299 310.903C163.635 314.354 156.582 314.095 144.533 315.76C130.974 317.635 123.304 318.144 109.718 319.809C97.3783 321.321 90.3583 321.55 78.1421 323.857L77.7658 323.928C69.7085 325.449 65.05 326.329 57.0914 328.715C53.2604 329.863 47.3757 331.953 47.3757 331.953C47.3757 331.953 41.401 325.182 40.089 319.809C39.0389 315.508 39.1189 312.793 40.089 308.474C41.3609 302.81 43.639 299.961 47.3757 295.519C51.732 290.341 55.1363 288.116 61.1397 284.994C69.5083 280.642 75.3196 280.905 84.6193 279.327C94.3279 277.678 99.9108 277.786 109.718 276.898C121.094 275.868 127.516 275.755 138.865 274.469C149.973 273.21 156.247 272.641 167.203 270.42C177.124 268.41 183.243 268.462 192.302 263.943C197.011 261.594 200.132 260.582 203.637 256.657C206.092 253.906 208.495 248.56 208.495 248.56ZM201.208 274.469C204.433 272.061 207.775 271.141 208.495 267.182C208.721 265.938 208.495 263.943 208.495 263.943C208.495 263.943 205.601 266.024 203.637 267.182C201.2 268.618 199.75 269.287 197.16 270.42C192.579 272.424 189.821 273.093 185.015 274.469C181.255 275.544 179.129 276.107 175.299 276.898C167.502 278.508 162.968 278.425 155.058 279.327C146.212 280.334 141.242 280.814 132.388 281.755C120.374 283.033 113.612 283.51 101.622 284.994C92.4356 286.131 87.1955 286.306 78.1421 288.233C71.09 289.733 66.9228 290.171 60.33 293.09C56.7074 294.694 54.104 295.031 51.4239 297.948C48.8395 300.762 48.0659 303.097 47.3757 306.854C46.8617 309.653 47.1128 311.308 47.3757 314.141C47.6736 317.352 48.995 322.238 48.995 322.238C48.995 322.238 50.1653 312.75 51.4239 310.903C52.6826 309.055 53.8912 308.435 55.4722 306.854C57.3693 304.957 58.1537 303.565 60.33 301.996C64.6294 298.897 68.1747 299.357 73.2843 297.948C82.0128 295.542 87.0412 294.682 95.9543 293.09C112.556 290.125 122.096 290.028 138.865 288.233C151.191 286.913 158.27 287.344 170.441 284.994C179.101 283.322 184.261 282.95 192.302 279.327C195.914 277.699 198.033 276.839 201.208 274.469Z" fill="#E476B8"/>
<path fill-rule="evenodd" clip-rule="evenodd" d="M222.258 284.994C222.258 284.994 230.99 292.173 235.213 297.948C239.803 304.226 242.517 308.15 244.119 315.76C245.422 321.948 244.554 325.645 244.119 331.953C243.657 338.645 244.436 342.836 241.69 348.956C239.203 354.497 236.563 357.121 231.974 361.1C223.056 368.835 215.008 368.453 203.637 371.626C188.215 375.928 179.124 376.952 163.155 378.103C149.909 379.057 142.429 379.722 129.15 379.722C116.186 379.722 108.884 379.229 95.9543 378.103C83.2565 376.997 75.9929 376.899 63.5686 374.055C54.21 371.912 47.8298 372.447 40.089 366.768C36.4837 364.123 33.5626 362.858 31.9925 358.671C30.6603 355.119 30.0965 352.242 31.9925 348.956C33.8352 345.762 36.6221 344.571 40.089 342.479C47.3782 338.08 52.8318 337.052 61.1397 335.192C72.705 332.602 79.3612 331.991 91.0964 330.334C108.107 327.932 117.758 328.106 134.817 325.476C148.74 323.33 156.743 323.549 170.441 319.809C183.656 316.2 192.096 315.854 203.637 308.474C209.128 304.962 212.749 303.214 216.591 297.948C219.846 293.488 222.258 284.994 222.258 284.994ZM223.878 303.616C224.821 300.598 225.497 295.519 225.497 295.519L219.02 303.616C219.02 303.616 214.61 306.625 211.733 308.474C204.343 313.223 200.343 316.27 192.302 319.809C182.96 323.92 177.105 326.242 167.203 328.715C158.418 330.908 153.479 330.558 144.533 331.953C133.558 333.665 127.243 333.234 116.195 334.382C103.518 335.7 96.3708 334.649 83.8096 336.811C73.2979 338.62 67.2543 339.24 57.0914 342.479C51.9435 344.119 46.4527 346.872 42.5179 350.575C40.5371 352.439 40.697 351.972 40.089 354.623C39.7355 356.164 40.089 358.671 40.089 358.671L44.1372 354.623C44.1372 354.623 55.1109 352.379 60.33 350.575C70.6477 347.01 73.8108 347.248 84.6193 345.717C96.8926 343.978 103.843 343.523 116.195 342.479L117.591 342.361C131.889 341.153 140.41 340.433 155.058 338.43C166.801 336.825 173.883 336.019 185.015 331.953C192.72 329.139 196.743 328.302 203.637 323.857C208.951 320.43 211.851 318.327 216.591 314.141C220.278 310.886 222.411 308.311 223.878 303.616Z" fill="#E476B8"/>
</svg>
