<svg width="42" height="34" viewBox="0 0 42 34" fill="none" xmlns="http://www.w3.org/2000/svg">
<path d="M0 7.60839C0 7.60839 0.865326 5.85486 1.90909 5.70629C2.68707 5.59556 3.81818 6.34033 3.81818 6.34033L9.54545 10.4615L18.1364 0.951049C18.1364 0.951049 19.8212 0 21 0C22.1788 0 23.8636 0.951049 23.8636 0.951049L32.4545 10.4615L37.2273 6.65734C37.2273 6.65734 38.9536 5.39726 40.0909 5.70629C41.1081 5.9827 42 7.60839 42 7.60839C42 7.60839 37.2272 32.3357 35.3182 33.2867C33.4091 34.2378 7.63642 34.2378 6.68182 33.2867C5.72721 32.3357 0 7.60839 0 7.60839Z" fill="#FBE536"/>
</svg>
