<svg width="25" height="25" viewBox="0 0 25 25" fill="none" xmlns="http://www.w3.org/2000/svg">
<circle cx="12.9" cy="12.9857" r="11.5143" fill="#FEFDFB" stroke="#0891A8"/>
<path d="M10.7669 17.338L13.2389 13.486C13.3589 13.294 13.4389 13.174 13.4789 13.126C13.7589 12.678 13.9629 12.306 14.0909 12.01C14.2189 11.714 14.2829 11.358 14.2829 10.942C14.2829 10.478 14.2069 10.122 14.0549 9.874C13.9029 9.626 13.6549 9.502 13.3109 9.502C12.5429 9.502 12.1589 10.098 12.1589 11.29V11.614H10.8749V11.278C10.8749 10.366 11.0629 9.666 11.4389 9.178C11.8149 8.69 12.4189 8.446 13.2509 8.446C14.0189 8.446 14.5989 8.666 14.9909 9.106C15.3829 9.538 15.5789 10.154 15.5789 10.954C15.5789 11.346 15.5309 11.698 15.4349 12.01C15.3469 12.314 15.2389 12.578 15.1109 12.802C14.9829 13.026 14.7829 13.346 14.5109 13.762L12.2789 17.17H15.3509V18.25H10.7669V17.338Z" fill="black"/>
</svg>
