<svg width="25" height="25" viewBox="0 0 25 25" fill="none" xmlns="http://www.w3.org/2000/svg">
<circle cx="12.6998" cy="12.9857" r="11.5143" fill="#FEFDFB" stroke="#E993B1"/>
<path d="M12.9307 18.358C12.1547 18.358 11.5627 18.142 11.1547 17.71C10.7547 17.27 10.5547 16.654 10.5547 15.862V15.538H11.8267V15.754C11.8427 16.25 11.9267 16.63 12.0787 16.894C12.2387 17.158 12.5227 17.29 12.9307 17.29C13.3627 17.29 13.6547 17.142 13.8067 16.846C13.9667 16.542 14.0467 16.094 14.0467 15.502C14.0467 14.958 13.9467 14.534 13.7467 14.23C13.5467 13.918 13.2227 13.746 12.7747 13.714C12.7427 13.706 12.6827 13.702 12.5947 13.702V12.418H12.7627C13.2187 12.402 13.5467 12.282 13.7467 12.058C13.9467 11.834 14.0467 11.462 14.0467 10.942C14.0467 10.462 13.9667 10.102 13.8067 9.862C13.6467 9.614 13.3587 9.49 12.9427 9.49C12.5267 9.49 12.2387 9.622 12.0787 9.886C11.9267 10.15 11.8427 10.538 11.8267 11.05V11.254H10.5547V10.93C10.5547 10.138 10.7547 9.526 11.1547 9.094C11.5627 8.662 12.1587 8.446 12.9427 8.446C13.7267 8.446 14.3187 8.666 14.7187 9.106C15.1267 9.538 15.3307 10.15 15.3307 10.942C15.3307 11.51 15.2067 11.974 14.9587 12.334C14.7107 12.694 14.3707 12.938 13.9387 13.066C14.3787 13.202 14.7187 13.478 14.9587 13.894C15.2067 14.31 15.3307 14.846 15.3307 15.502C15.3307 16.406 15.1347 17.11 14.7427 17.614C14.3587 18.11 13.7547 18.358 12.9307 18.358Z" fill="black"/>
</svg>
