<svg width="538" height="731" viewBox="0 0 538 731" fill="none" xmlns="http://www.w3.org/2000/svg">
<path d="M255.144 111.144C252.295 133.952 251.144 146.957 245.144 169.144C238.82 192.529 230.344 205.171 220.144 227.144C213.083 242.355 207.464 251.824 198.144 265.144C192.12 273.754 185.144 282.144 185.144 282.144C185.144 282.144 150.823 303.793 129.144 318.144C105.48 333.81 91.2824 341.388 69.1441 359.144C52.3199 372.639 40.1366 378.218 28.1441 396.144C25.1274 400.654 21.8876 402.77 21.1441 408.144C20.8765 410.078 21.1441 413.144 21.1441 413.144C21.1441 413.144 9.77185 415.134 5.14411 420.144C2.41593 423.098 0.144108 429.144 0.144108 429.144C0.144108 429.144 -0.180135 450.48 0.144108 464.144C0.794245 491.543 4.4462 506.747 5.14411 534.144C5.53196 549.37 5.14411 573.144 5.14411 573.144C5.14411 573.144 14.0692 584.947 21.1441 591.144C27.9072 597.068 33.1397 598.508 40.1441 604.144C42.9492 606.401 47.1441 610.144 47.1441 610.144V645.144C47.1441 645.144 41.6834 649.966 40.1441 654.144C38.389 658.908 36.6741 662.737 41.1441 665.144C43.551 666.44 47.1441 667.144 47.1441 667.144C47.1441 667.144 32.79 668.094 27.1441 674.144C22.0887 679.561 19.8351 684.851 21.1441 692.144C22.0086 696.961 23.3123 700.101 27.1441 703.144C33.2603 708.002 39.3923 704.1 47.1441 703.144C60.2594 701.528 66.7073 696.611 79.1441 692.144C86.5862 689.471 98.1441 685.144 98.1441 685.144L261.144 730.144L438.144 639.144C438.144 639.144 443.456 637.049 445.144 634.144C447.204 630.599 446.784 627.402 445.144 623.644C444.034 621.101 443.137 619.365 440.644 618.144C438.014 616.856 433.144 618.144 433.144 618.144L422.644 523.144C422.644 523.144 431.176 519.909 433.144 515.144C434.635 511.535 434.636 508.753 433.144 505.144C431.979 502.325 430.574 500.988 428.144 499.144C424.404 496.307 416.644 495.644 416.644 495.644L245.144 462.644L180.644 481.144C180.644 481.144 180.284 472.073 177.644 467.144C175.424 462.999 172.972 461.466 169.644 458.144C165.627 454.134 163.72 451.185 158.644 448.644C152.959 445.798 148.987 445.214 142.644 445.644C136.052 446.092 133.018 449.404 126.644 451.144C122.394 452.304 119.628 451.764 115.644 453.644C110.76 455.949 107.897 457.998 105.144 462.644C102.97 466.313 102.461 468.891 102.144 473.144C102.028 474.702 102.144 477.144 102.144 477.144L67.1441 484.644L63.1441 481.144L59.1441 458.144C59.1441 458.144 65.46 456.809 67.1441 453.644C68.6119 450.886 67.1441 448.768 67.1441 445.644V440.644C67.1441 440.644 79.1406 436.996 86.6441 434.144C103.949 427.567 112.546 421.343 129.144 413.144C144.959 405.332 153.759 400.814 169.644 393.144C184.038 386.194 192.252 382.597 206.644 375.644C216.63 370.82 221.605 366.596 232.144 363.144C238.598 361.03 242.398 360.351 249.059 359.16L249.144 359.144C261.1 357.006 268.011 357.188 280.144 356.644C295.359 355.963 303.946 355.653 319.144 356.644C337.055 357.812 347.111 359.302 364.644 363.144C376.304 365.699 382.79 367.461 394.144 371.144C407.906 375.609 415.284 379.093 428.644 384.644C441.643 390.045 448.658 393.713 461.644 399.144C474.824 404.656 481.488 410.719 495.644 412.644C503.577 413.723 508.614 415.364 516.144 412.644C523.833 409.867 527.851 406.102 532.144 399.144C535.975 392.936 536.177 388.375 537.144 381.144C538.076 374.177 537.668 370.154 537.144 363.144C536.359 352.642 534.556 346.896 532.144 336.644C528.876 322.753 526.494 315.065 521.644 301.644C514.191 281.02 507.78 270.343 498.144 250.644C489.165 232.287 483.742 222.186 474.144 204.144C466.1 189.024 461.895 180.366 453.144 165.644C440.913 145.068 433.13 134.07 419.144 114.644C406.616 97.2435 399.305 87.6709 385.644 71.1442C373.04 55.8957 366.881 46.3424 352.144 33.1442C339.546 21.8621 332.623 14.4563 317.144 7.64424C307.472 3.38746 301.666 -0.840546 291.144 0.144242C284.134 0.800319 279.573 1.66146 274.144 6.14424C268.877 10.494 267.979 14.929 265.144 21.1442C257.786 37.2742 261.1 48.5234 259.144 66.1442C257.198 83.6794 257.331 93.6375 255.144 111.144Z" fill="#FFCD93"/>
<path fill-rule="evenodd" clip-rule="evenodd" d="M423.5 630.043L258.5 707.543L245.5 613.043L252 707.543L109 671.043L101.5 644.543L106 669.043C106 669.043 106.394 670.553 106.5 671.543C106.625 672.708 106.67 673.384 106.5 674.543C106.383 675.34 106.422 675.857 106 676.543C105.488 677.374 104.833 677.533 104 678.043C102.731 678.819 100.5 679.543 100.5 679.543L43.5 698.543C43.5 698.543 40.1159 698.912 38 698.543C36.1752 698.224 35.0331 698.083 33.5 697.043C32.0771 696.078 31.5044 695.157 30.6263 693.746L30.5 693.543C29.3875 691.758 28.862 690.615 28.5 688.543C28.1975 686.812 28.0242 685.735 28.5 684.043C28.9262 682.528 29.4853 681.747 30.5 680.543C31.4683 679.394 32.2079 678.902 33.4435 678.081L33.5 678.043C34.9541 677.076 37.5 676.043 37.5 676.043L72.5 672.043C72.5 672.043 58.0534 670.026 49.5 666.543C47.7189 665.818 46.2766 665.981 45 664.543C43.8925 663.295 43.7681 662.19 43.5 660.543C43.2804 659.194 42.8817 658.262 43.5 657.043C44.0656 655.928 44.9581 655.734 46 655.043C49.3976 652.789 56 652.043 56 652.043L51.5 606.043L24.5 586.543C24.5 586.543 20.3677 583.615 18.5 581.043C16.4963 578.284 16.1349 576.259 15 573.043C14.0538 570.362 13.6282 568.816 13 566.043C12.0847 562.003 11.5 555.543 11.5 555.543L5 428.543C5 428.543 6.12199 427.213 7 426.543C8.52866 425.376 9.68791 425.187 11.5 424.543C13.7758 423.734 15.1052 423.356 17.5 423.043C20.2106 422.688 24.5 423.043 24.5 423.043C24.5 423.043 25.0532 418.077 26 415.043C27.3005 410.875 28.881 408.861 31 405.043C33.3405 400.826 34.4984 398.318 37.5 394.543C41.8904 389.022 45.6239 387.11 51 382.543C59.9019 374.982 65.1304 371.017 74.5 364.043C85.754 355.667 92.5 351.578 104 343.543C107.908 340.813 114 336.543 114 336.543C114 336.543 115.513 335.907 116.5 335.543C117.659 335.116 119.5 334.543 119.5 334.543C119.5 334.543 121.037 333.34 122 332.543C123.599 331.22 124.424 330.394 126 329.043C132.164 323.762 135.849 321.01 142.294 316.197L142.5 316.043C150.703 309.917 155.438 306.655 164 301.043C171.115 296.38 175.325 294.113 182.5 289.543C185.241 287.797 189.5 285.043 189.5 285.043C189.5 285.043 193.574 280.877 196 278.043C201.743 271.336 204.328 267.036 209 259.543C213.486 252.35 215.479 248.006 219.5 240.543C223.891 232.393 226.477 227.881 230.5 219.543C234.033 212.222 235.997 208.096 239 200.543C242.582 191.535 244.029 186.271 247 177.043C249.878 168.106 251.81 163.173 254 154.043C256.448 143.835 257.067 137.942 258.5 127.543C260.055 116.264 260.479 109.883 261.5 98.543C262.676 85.4769 262.447 78.0697 264 65.043C265.451 52.8665 265.983 45.9289 269 34.043C270.201 29.3114 270.249 26.3748 272.5 22.043C274.679 17.8485 276.236 15.4021 280 12.543C282.781 10.4302 284.606 9.36966 288 8.54298C291.605 7.66494 293.831 7.99122 297.5 8.54298C301.347 9.1216 303.356 10.1795 307 11.543C314.361 14.2974 318.28 16.4674 325 20.543C335.456 26.8843 340.457 31.8109 349.5 40.043C362.379 51.7678 368.333 59.6775 379.5 73.043C391.92 87.9077 398.221 96.7952 409.5 112.543C418.992 125.796 424.119 133.373 433 147.043C441.266 159.765 445.867 166.931 453.5 180.043C463.081 196.501 467.726 206.141 476.5 223.043C482.454 234.514 485.883 240.903 491.5 252.543C499.402 268.916 504.01 278.06 510.5 295.043C515.57 308.309 518.266 315.841 522 329.543C525.051 340.741 526.861 347.053 528.5 358.543C529.304 364.179 530.185 367.353 530 373.043C529.862 377.287 529.377 379.692 528.553 383.782L528.5 384.043C527.498 389.012 527.795 392.314 525 396.543C523.173 399.307 521.64 400.541 519 402.543C516.491 404.446 515.025 405.669 512 406.543C508.436 407.573 506.204 406.745 502.5 406.543C495.992 406.188 492.319 405.637 486 404.043C476.577 401.666 471.974 398.274 463 394.543C450.878 389.504 444.133 386.555 432 381.543C422.449 377.598 417.181 375.16 407.5 371.543C395.932 367.221 389.47 364.58 377.5 361.543C369.965 359.631 365.631 359.025 358 357.543C347.096 355.426 341.023 353.91 330 352.543C319.133 351.195 312.803 350.968 302.186 350.586L301 350.543C288.511 350.092 281.461 349.603 269 350.543C257.986 351.374 251.962 353.189 241 354.543C237.683 354.953 232.5 355.543 232.5 355.543C232.5 355.543 224.27 359.804 219 362.543L217.152 363.504C209.279 367.595 204.335 370.164 196 374.543C186.025 379.784 180.431 383.105 170.5 388.043C166.59 389.987 164.627 390.617 160.5 392.043C158.396 392.77 155 393.543 155 393.543C155 393.543 153.488 394.776 152.5 395.543C150.402 397.171 149.188 398.038 147 399.543C135.992 407.115 128.661 410.085 116.5 416.043C105.746 421.311 99.6802 423.814 88.5 428.543C80.9855 431.722 77.0111 434.496 69 436.043C67.8338 436.268 67.1852 436.465 66 436.543C65.2206 436.594 64 436.543 64 436.543C62.5272 436.337 60.5 435.043 60.5 435.043C60.5 435.043 60.4301 438.396 60.5 440.543C60.634 444.66 61.5 451.043 61.5 451.043L53 452.543C53 452.543 52.9 457.116 53 460.043C53.1539 464.548 53.3273 467.086 54 471.543C54.6858 476.087 55.4211 478.576 56.5 483.043C56.878 484.608 56.9243 485.539 57.5 487.043C57.9683 488.266 58.1713 489.029 59 490.043C59.791 491.011 60.355 491.541 61.5 492.043C62.5877 492.52 63.3152 492.459 64.5 492.543C67.6707 492.767 72.5 491.043 72.5 491.043L107 481.543C107 481.543 107.296 476.191 108.5 473.043C109.124 471.412 109.616 470.549 110.5 469.043C111.983 466.517 112.874 465.058 115 463.043C117.359 460.807 118.994 459.779 122 458.543C124.059 457.696 125.293 457.333 127.5 457.043C129.63 456.763 133 457.043 133 457.043C133 457.043 135.578 454.919 137.5 454.043C140.392 452.724 142.323 452.641 145.5 452.543C147.85 452.47 149.223 452.458 151.5 453.043C154.715 453.869 156.208 455.247 159 457.043C161.463 458.627 162.906 459.495 165 461.543C167.905 464.384 169.22 466.39 171 470.043C172.786 473.708 173.144 476.057 174 480.043C174.499 482.365 174.823 483.674 175 486.043C175.145 487.99 175 491.043 175 491.043L245 469.543L419 503.543C419 503.543 422.338 503.446 424 504.543C425.273 505.383 425.9 506.141 426.5 507.543C427.043 508.812 427.142 509.67 427 511.043C426.873 512.271 426.684 513.014 426 514.043C425.07 515.442 423.974 515.738 422.5 516.543C420.332 517.726 416.5 518.543 416.5 518.543L426.5 624.043C426.5 624.043 430.876 623.278 433.5 624.043C435.177 624.532 436.325 624.751 437.5 626.043C438.381 627.012 439 629.043 439 629.043V631.043C438.776 632.333 438.357 633.053 437.5 634.043C436.578 635.107 434.5 636.043 434.5 636.043L258.5 724.043L104 680.543C104 680.543 105.585 680.061 106.5 679.543C107.588 678.927 108.586 678.723 109 677.543C109.259 676.806 109.068 676.321 109 675.543C108.914 674.551 108.5 673.043 108.5 673.043L257 711.543L423.5 630.043ZM347 79.543L323.5 61.543L329 138.043C329 138.043 335.104 141.598 338.5 144.543C342.261 147.804 347 154.043 347 154.043L357.5 134.543L371.5 108.043L367.5 101.043L347 79.543ZM367.5 177.043C365.178 173.439 362 167.543 362 167.543L388 132.043L411.5 164.543L391.5 181.543L379 192.043C379 192.043 371.497 183.248 367.5 177.043ZM323 163.043L321 151.043L326.5 154.043L323 163.043ZM353 181.543L340.5 199.543C340.5 199.543 334.177 187.009 330 179.043C325.781 170.996 322.883 166.757 319 158.543C315.296 150.708 313.768 146.07 310.5 138.043C305.906 126.759 303.029 120.541 299 109.043C295.282 98.4349 293.197 92.4554 290.5 81.543C287.643 69.9798 285 51.543 285 51.543C285 51.543 284.86 64.7153 286 73.043C287.086 80.9748 288.415 85.3135 290.5 93.043C294.554 108.071 298.064 116.155 304 130.543C309.332 143.465 313.495 150.194 319 163.043C321.828 169.642 323.002 173.519 326 180.043C330.34 189.488 333.42 194.474 338.5 203.543C344.834 214.849 348.892 220.895 355.5 232.043C363.355 245.295 367.375 252.955 375.5 266.043L375.56 266.139C382.15 276.754 385.868 282.744 393 293.043C400.47 303.831 404.794 309.804 413 320.043C421.742 330.951 427.01 336.78 436.5 347.043C445.593 356.877 450.17 363.018 460.5 371.543C468.396 378.059 472.817 382.017 482 386.543C486.716 388.867 489.315 390.672 494.5 391.543C498.544 392.222 500.966 392.276 505 391.543C508.89 390.836 511.549 390.674 514.5 388.043C517.303 385.543 517.62 383.036 519 379.543C521.618 372.915 521.667 368.662 522 361.543C522.69 346.816 517.88 338.894 514.5 324.543C513.023 318.274 512.426 314.689 510.5 308.543C507.984 300.516 505.693 296.326 502.5 288.543C496.856 274.785 493.757 267.033 487.5 253.543C481.254 240.076 477.452 232.66 470.5 219.543C463.581 206.489 459.646 199.185 452 186.543C446.73 177.829 443.441 173.151 438 164.543C433.687 157.719 431.417 153.799 427 147.043C418.641 134.256 413.867 127.111 404.5 115.043C399.395 108.466 396.33 104.939 391 98.543C379.922 85.2502 362 65.043 362 65.043C362 65.043 375.676 82.1385 384.5 93.043C389.564 99.3014 392.623 102.637 397.5 109.043C404.128 117.749 407.295 123.031 413.5 132.043C419.397 140.608 422.873 145.298 428.5 154.043C440.518 172.72 445.901 184.026 456.5 203.543C464.503 218.28 469.076 226.506 476.5 241.543C483.268 255.251 487.421 262.809 493 277.043C497.214 287.794 499.13 293.999 502.5 305.043C504.809 312.611 506.039 316.878 508 324.543C510.971 336.157 513.54 342.594 514.5 354.543C515.078 361.745 516.751 366.178 514.5 373.043C512.945 377.784 512.199 381.348 508 384.043C503.551 386.898 499.711 385.933 494.5 385.043C489.287 384.152 486.553 382.423 482.112 379.614L482 379.543C477.901 376.95 472.5 371.543 472.5 371.543C472.5 371.543 476.767 374.788 480 375.543C482.852 376.209 484.662 376.268 487.5 375.543C490.551 374.764 492.301 373.796 494.5 371.543C495.975 370.032 496.517 368.912 497.5 367.043C499.837 362.6 499.983 359.536 500.5 354.543C501.227 347.527 499.789 343.553 499 336.543C498.095 328.503 497.837 323.923 496 316.043C493.701 306.18 490.97 301.057 487.5 291.543C483.412 280.335 481.223 273.999 476.5 263.043C469.586 247.005 464.648 238.491 456.5 223.043C452.669 215.779 450.517 211.706 446.5 204.543C441.406 195.459 438.467 190.408 433 181.543C426.262 170.618 421.963 164.826 415 154.043C409.094 144.897 406.322 139.407 400 130.543C392.103 119.469 387.22 113.542 378 103.543C368.825 93.5936 353 79.543 353 79.543C353 79.543 367.401 94.4411 376 104.543C384.381 114.389 388.924 120.065 396.5 130.543C404.179 141.163 407.894 147.531 415 158.543C419.141 164.961 421.376 168.615 425.5 175.043C429.77 181.698 432.404 185.279 436.5 192.043C444.508 205.267 447.893 213.313 455 227.043C460.339 237.358 463.522 243.049 468.5 253.543C473.709 264.524 476.43 270.782 481 282.043C485.391 292.864 488.312 298.808 491.5 310.043C494.918 322.09 496.685 329.047 497.5 341.543C497.932 348.168 499.095 352.099 497.5 358.543C496.428 362.873 496.436 366.198 493 369.043C489.607 371.852 486.405 371.577 482 371.543C474.821 371.487 471.244 368.087 465 364.543C454.536 358.603 450.439 352.619 442 344.043C433.845 335.755 429.936 330.482 422.5 321.543C407.714 303.769 386.5 274.543 386.5 274.543L404.5 270.543L397.5 254.543L377 261.543L355.5 226.043L374.5 212.543L353 181.543ZM206.5 317.043C208.493 320.221 212.5 324.543 212.5 324.543L256.5 293.043L336.5 238.543C336.5 238.543 340.043 245.01 342.5 249.043C346.67 255.888 349.634 259.321 354 266.043C358.634 273.177 365.5 284.543 365.5 284.543C365.5 284.543 347.695 286.944 336.5 289.543C326.206 291.933 320.618 293.994 310.5 297.043C299.916 300.232 293.923 301.862 283.5 305.543C272.012 309.6 265.71 312.271 254.5 317.043C243.646 321.664 227 329.543 227 329.543C227 329.543 238.613 322.037 246.5 318.043C255.009 313.734 260.207 311.239 269 307.543C279.731 303.032 285.685 300.941 296.5 297.043C307.363 293.127 324.5 287.543 324.5 287.543C324.5 287.543 315.92 289.17 310.5 290.543C299.726 293.272 293.998 294.892 283.5 298.543C271.131 302.845 264.235 305.998 252 311.043C241.405 315.412 235.191 317.3 225 322.543C220.025 325.102 212.5 329.543 212.5 329.543C212.5 329.543 209.697 325.315 208 322.543C205.306 318.143 203.185 315.919 201.5 311.043C200.011 306.734 199.5 299.543 199.5 299.543C199.5 299.543 200.65 303.224 201.5 305.543C203.186 310.141 203.898 312.894 206.5 317.043ZM422.5 284.543C424.129 291.085 425.5 301.543 425.5 301.543C425.5 301.543 445.661 311.27 458 318.543C464.954 322.642 475.5 329.543 475.5 329.543C475.5 329.543 468.898 326.253 464.5 324.543C458.974 322.394 450 320.043 450 320.043C450 320.043 460.877 326.746 467.5 331.543C477.381 338.7 491.5 351.543 491.5 351.543C491.5 351.543 490.763 342.38 490 336.543C488.843 327.694 488.026 322.735 486 314.043C483.547 303.515 481.766 297.676 478 287.543C473.587 275.667 470.027 269.443 464.5 258.043C458.367 245.391 454.788 238.356 448 226.043C443.1 217.156 440.29 212.203 435 203.543C430.285 195.823 422.5 184.043 422.5 184.043C422.5 184.043 415.812 188.942 411.5 192.043C402.396 198.59 388 208.543 388 208.543C388 208.543 395.399 222.822 400 232.043C406.005 244.077 409.994 250.56 415 263.043C418.31 271.296 420.351 275.914 422.5 284.543ZM415 287.543C416.71 292.966 419 301.543 419 301.543C419 301.543 419.352 296.344 419 293.043C418.508 288.428 417.409 285.965 416 281.543C413.821 274.702 411.935 271.096 409 264.543C406.073 258.007 404.192 254.453 401 248.043C394.81 235.612 391.387 228.602 384.5 216.543L384.041 215.739C381.282 210.907 379.6 207.96 376.5 203.043C369.855 192.501 365.511 186.987 358 177.043C351.383 168.283 348.68 162.364 340.5 155.043C336.659 151.605 334.763 149.016 330 147.043C328.117 146.263 325 145.543 325 145.543C325 145.543 330.012 148.709 333 151.043C340.402 156.826 343.479 161.334 349.5 168.543C357.765 178.439 361.327 184.829 368.5 195.543C371.875 200.583 373.829 203.372 377 208.543C383.257 218.746 386.142 224.841 391.5 235.543C395.371 243.275 397.577 247.603 401 255.543C403.498 261.337 407 270.543 407 270.543H409C409 270.543 412.882 280.829 415 287.543ZM304 151.043C292.767 123.816 280 79.543 280 79.543C280 79.543 286.45 113.58 293.5 134.543C301.33 157.826 307.879 170.14 319 192.043C332.554 218.737 341.538 233.037 358 258.043C376.425 286.03 387.12 301.665 409 327.043C427.754 348.795 460.5 379.543 460.5 379.543C460.5 379.543 419.958 335.389 396.5 305.043C377.05 279.883 366.227 265.59 349.5 238.543C329.242 205.787 318.689 186.647 304 151.043ZM409 339.043C423.989 356.578 452 379.543 452 379.543C452 379.543 434.298 371.208 422.5 367.043C411.195 363.052 404.566 361.701 393 358.543C375.137 353.665 365.294 349.905 347 347.043C327.481 343.99 316.25 344.526 296.5 344.043C282.641 343.704 261 344.043 261 344.043C261 344.043 288.094 341.532 305.5 341.543C322.711 341.554 332.418 341.938 349.5 344.043C369.872 346.553 401 354.543 401 354.543C401 354.543 375.147 345.252 358 341.543C345.638 338.869 338.603 337.613 326 336.543C310.897 335.261 302.291 335.723 287.218 336.531L287 336.543C264.774 337.735 230.5 344.043 230.5 344.043C230.5 344.043 259.404 332.592 278.5 327.043C301.523 320.353 338.5 314.043 338.5 314.043C338.5 314.043 321.396 315.557 310.5 317.043C294.182 319.269 269 324.543 269 324.543C269 324.543 303.335 313.767 326 310.043C348.61 306.328 384.5 305.543 384.5 305.543C384.5 305.543 398.468 326.723 409 339.043ZM212.5 348.043C215.794 351.001 221 355.543 221 355.543L165 385.043C165 385.043 178.402 377.905 186.5 372.543C194.64 367.153 206.5 357.543 206.5 357.543C206.5 357.543 189.566 366.937 178.5 372.543C168.45 377.634 152.5 385.043 152.5 385.043L147 379.543L173.5 362.543L142.5 374.543L140 370.543L199.5 336.043C199.5 336.043 207.36 343.427 212.5 348.043ZM88.5 401.043C104.3 391.837 129 377.543 129 377.543C129 377.543 133.263 384.492 137 388.043C140.143 391.029 146 394.543 146 394.543C146 394.543 135.791 401.2 129 405.043C116.077 412.355 108.227 415.622 94.7227 421.242L94 421.543C83.2184 426.031 66 432.043 66 432.043C66 432.043 85.4202 423.027 97.5 416.543C111.692 408.925 133 395.543 133 395.543C133 395.543 107.886 407.823 91.5 415.043C78.5247 420.76 58 429.043 58 429.043L56 426.543C56 426.543 64.0178 421.816 69 418.543C74.388 415.003 82.5 409.043 82.5 409.043L56 420.043C56 420.043 75.7972 408.444 88.5 401.043ZM214.5 341.543C218.878 346.351 227 352.543 227 352.543C227 352.543 216.33 347.247 211.5 342.043C209.215 339.581 208.571 338.688 206.5 336.043C203.43 332.124 200.769 330.68 198 326.543C194.89 321.896 193.754 318.852 192 313.543C190.678 309.541 190.027 307.225 189.5 303.043C188.889 298.2 189.5 290.543 189.5 290.543C189.5 290.543 191.014 296.031 192 299.543C193.538 305.017 193.852 308.278 196 313.543C199.01 320.923 201.95 324.5 206.5 331.043C209.443 335.275 211.029 337.731 214.5 341.543ZM146 385.043C148.403 387.341 152.5 390.543 152.5 390.543C152.5 390.543 149.044 389.222 147 388.043C144.098 386.369 142.65 385.016 140.274 382.798L140 382.543C136.965 379.711 135.466 377.882 133 374.543C129.777 370.179 128.335 367.44 126 362.543C124.19 358.746 123.086 356.606 122 352.543C120.63 347.418 120.5 339.043 120.5 339.043C120.5 339.043 122.568 344.554 124 348.043C126.191 353.38 127.459 356.363 130 361.543C132.54 366.72 133.721 369.8 137 374.543C140.071 378.986 142.097 381.31 146 385.043ZM36.5 403.043C36.6169 401.055 37.5 398.043 37.5 398.043C37.5 398.043 38.5205 400.754 39 402.543C39.5154 404.466 39.4723 405.623 40 407.543C40.8359 410.585 41.7837 412.132 43 415.043C44.3149 418.189 44.6076 420.206 46.5 423.043C48.1109 425.458 49.4088 426.53 51.5 428.543C52.9953 429.983 55.5 432.043 55.5 432.043H52C52 432.043 48.4453 429.198 46.5 427.043C44.2487 424.55 43.1005 422.997 41.5 420.043C39.9971 417.269 39.4381 415.555 38.5 412.543C37.3725 408.923 36.2774 406.828 36.5 403.043ZM42 436.043C45.5671 435.554 51 434.043 51 434.043C51 434.043 45.719 437.062 42 438.043C38.5806 438.945 36.5359 438.987 33 439.043C28.8814 439.108 26.5446 438.823 22.5 438.043C19.5235 437.469 17.7103 437.401 15 436.043C13.982 435.533 12.5 434.543 12.5 434.543C12.5 434.543 18.5705 435.652 22.5 436.043C26.585 436.45 28.895 436.576 33 436.543L33.4588 436.539C36.6994 436.515 38.6668 436.5 42 436.043ZM43 452.543C47.307 452.047 54 451.043 54 451.043C54 451.043 49.2213 453.173 46 454.043C42.3739 455.022 40.2478 455.296 36.5 455.543C33.7723 455.723 32.2305 455.675 29.5 455.543C25.9678 455.372 23.9364 455.378 20.5 454.543C17.6793 453.858 13.5 452.043 13.5 452.043C13.5 452.043 20.1715 453.297 24.5 453.543C27.6192 453.72 29.3784 453.671 32.5 453.543C36.6156 453.374 38.908 453.014 43 452.543ZM48.5 476.543V464.543C48.5 464.543 50.2877 472.729 51 478.043C51.5472 482.126 51.2582 484.491 52 488.543C52.3242 490.314 53 493.043 53 493.043C53 493.043 54.944 495.138 56.5 496.043C57.942 496.882 58.8657 497.208 60.5 497.543C62.6041 497.974 66 497.543 66 497.543C66 497.543 72.4139 496.722 76.5 496.043C82.3931 495.064 91.5 493.043 91.5 493.043C91.5 493.043 84.2876 496.084 79.5 497.543C73.3817 499.408 63.5 501.043 63.5 501.043C63.5 501.043 60.392 501.526 58.5 501.043C56.552 500.546 55.6498 499.692 54 498.543C52.0704 497.199 50.6732 496.581 49.5 494.543C48.9753 493.632 48.5 492.043 48.5 492.043V487.043V476.543ZM152.5 470.043C150.532 467.028 146.5 463.043 146.5 463.043C146.5 463.043 150.394 463.361 152.5 464.543C154.668 465.759 155.41 467.133 157 469.043C159.357 471.875 160.458 473.697 162 477.043C163.706 480.746 164.688 482.978 165 487.043C165.317 491.173 165.44 493.883 163.5 497.543C161.819 500.715 157 504.043 157 504.043C157 504.043 157.672 501.313 158 499.543C158.609 496.257 159.038 494.385 159 491.043C158.95 486.677 158.301 484.211 157 480.043C155.724 475.955 154.84 473.629 152.5 470.043ZM135.5 469.043C132.601 467.738 130.634 467.014 127.5 467.543C125.174 467.936 123.798 468.516 122 470.043C120.059 471.691 119.484 473.195 118.5 475.543C117.345 478.298 117.206 480.063 117 483.043C116.729 486.958 116.892 489.298 118 493.043C119.045 496.576 119.817 498.075 122 501.043C123.97 503.722 124.741 505.687 127.5 507.543C129.757 509.061 131.123 509.863 134 510.043C136.222 510.182 137.469 510.454 139.5 509.543C142.672 508.12 144.648 506.985 146.5 504.043C148.216 501.318 148.089 499.237 148.5 496.043C148.948 492.557 149.143 490.498 148.5 487.043C147.589 482.149 146.12 479.422 143 475.543C140.571 472.523 139.034 470.634 135.5 469.043ZM108 610.543C107.372 612.597 108 616.043 108 616.043H110C110 616.043 109.766 614.191 110 613.043C110.21 612.013 110.446 611.437 111 610.543C111.728 609.37 112.41 608.891 113.5 608.043C114.743 607.076 115.471 606.418 117 606.043C118.327 605.717 119.206 605.603 120.5 606.043C121.944 606.534 122.372 607.517 123.5 608.543C124.726 609.658 125.514 610.212 126.5 611.543C127.905 613.439 128.548 614.727 129 617.043C129.374 618.959 129.189 620.1 129 622.043C128.747 624.636 128.672 626.216 127.5 628.543C126.744 630.043 126.4 631.115 125 632.043C123.815 632.828 122.919 632.951 121.5 633.043C120.122 633.133 119.292 633.03 118 632.543C116.935 632.141 116.384 631.761 115.5 631.043C114.857 630.521 114 629.543 114 629.543C114 629.543 114.928 628.953 115.5 628.543C116.74 627.655 118.5 626.043 118.5 626.043C118.5 626.043 115.122 626.529 113 627.043C111.019 627.523 109.897 627.797 108 628.543C105.968 629.342 103 631.043 103 631.043C103 631.043 106.085 631.426 108 631.043C109.211 630.801 111 630.043 111 630.043C111 630.043 112.617 632.391 114 633.543L114.094 633.621C115.585 634.864 116.564 635.68 118.5 636.043C119.652 636.259 120.343 636.226 121.5 636.043C122.72 635.85 123.458 635.706 124.5 635.043C125.432 634.45 126.5 633.043 126.5 633.043C126.5 633.043 128.009 633.446 129 633.543C129.972 633.638 130.542 633.729 131.5 633.543C133.308 633.193 134.157 632.303 135.5 631.043C137.478 629.187 138.108 627.605 139 625.043C139.845 622.618 139.972 621.111 140 618.543C140.03 615.782 139.853 614.169 139 611.543C138.109 608.801 137.47 607.148 135.5 605.043C133.464 602.866 131.902 601.722 129 601.043L128.873 601.013C126.85 600.539 125.431 600.207 123.5 601.043C122.101 601.649 120.5 603.543 120.5 603.543C120.5 603.543 117.392 603.06 115.5 603.543C113.552 604.04 112.486 604.689 111 606.043C109.439 607.466 108.617 608.523 108 610.543ZM88 625.043L115.5 617.043L91 627.043L100.5 671.543C100.5 671.543 85.6693 675.179 76 676.543C64.3734 678.183 46 678.543 46 678.543L97 669.043L88 625.043ZM32 682.043C32.9262 681.117 35 680.543 35 680.543C35 680.543 34.0095 681.71 33.5 682.543C32.7239 683.811 32.3064 684.588 32 686.043C31.6782 687.572 32 690.043 32 690.043C32 690.043 31.2989 689.18 31 688.543C30.4138 687.293 30.2676 686.404 30.5 685.043C30.7204 683.752 31.0738 682.969 32 682.043ZM43.5 684.043C43.0313 682.632 42 680.543 42 680.543C42 680.543 44.1894 682.098 45 683.543C45.7878 684.947 45.8062 685.945 46 687.543L46.0228 687.73C46.1982 689.17 46.3086 690.077 46 691.543C45.6936 692.998 44.5 695.043 44.5 695.043C44.5 695.043 44.8241 691.061 44.5 688.543C44.2702 686.757 44.0674 685.751 43.5 684.043ZM58 658.543L93.5 667.043V668.543H92C92 668.543 79.3529 666.04 71.5 663.543C66.1423 661.839 58 658.543 58 658.543ZM244.5 586.543L52 550.043L244.5 592.543L408.5 523.043L244.5 586.543ZM338.5 562.043C311.445 573.247 270 592.543 270 592.543C270 592.543 307.681 578.408 331.5 568.543C358.719 557.27 400.5 538.043 400.5 538.043C400.5 538.043 362.488 552.109 338.5 562.043ZM244.5 578.543L45 538.043L244.5 574.043L406 513.043L244.5 578.543ZM137 540.543C132.683 538.873 126.5 535.043 126.5 535.043C126.5 535.043 134.053 537.437 139 538.543C143.449 539.537 145.993 539.858 150.5 540.543L150.556 540.552C156.938 541.522 160.545 542.071 167 542.543C176.932 543.27 182.544 542.758 192.5 542.543C207.162 542.227 215.384 541.746 230 540.543C242.722 539.495 249.924 539.236 262.5 537.043C271.367 535.497 276.306 534.374 285 532.043C295.914 529.117 301.858 526.843 312.5 523.043C318.785 520.799 328.5 517.043 328.5 517.043C328.5 517.043 322.529 522.837 318 525.543C311.109 529.661 306.189 529.737 298.5 532.043C277.848 538.238 265.877 540.727 244.5 543.543C227.231 545.818 217.41 546.028 200 546.543C186.338 546.947 178.567 548.202 165 546.543C158.499 545.748 154.886 544.997 148.5 543.543C143.975 542.512 141.329 542.217 137 540.543ZM124.5 524.043C123.947 521.931 125.5 518.543 125.5 518.543C125.5 518.543 129.718 519.763 132.5 520.043C135.026 520.297 136.472 520.273 139 520.043C141.975 519.773 143.887 519.991 146.5 518.543C148.315 517.537 150.5 515.043 150.5 515.043L160.5 521.543L158 515.043C158 515.043 162.663 513.513 165 511.543C167.239 509.655 168.81 507.935 170.5 505.543C172.125 503.243 172.382 502.128 173.5 499.543C174.384 497.5 175 494.043 175 494.043C175 494.043 178.329 492.756 180.5 492.043C187.341 489.795 191.404 489.266 198.5 488.043C207.021 486.574 211.911 486.543 220.5 485.543C228.704 484.588 233.257 483.558 241.5 483.043C250.659 482.471 255.823 483.043 265 483.043C272.615 483.043 276.889 482.794 284.5 483.043C290.952 483.254 294.645 482.911 301 484.043C306.598 485.041 309.615 486.218 315 488.043C319.156 489.451 321.718 489.818 325.5 492.043C328.024 493.528 329.843 494.128 331.5 496.543C332.793 498.428 333.573 499.759 333.5 502.043C333.433 504.145 332.451 505.167 331.5 507.043C330.227 509.555 329.458 511.019 327.5 513.043C324.52 516.124 321.809 516.577 318 518.543C308.557 523.418 302.662 524.934 292.5 528.043C280.996 531.562 274.343 532.927 262.5 535.043C252.538 536.823 246.743 537.426 236.938 538.445L236 538.543L235.432 538.602C225.655 539.62 219.986 540.21 210 540.543C202.194 540.803 197.81 540.543 190 540.543C183.556 540.543 179.927 541.011 173.5 540.543C167.799 540.128 164.66 539.34 159 538.543C154.898 537.966 152.567 537.829 148.5 537.043C145.152 536.396 143.188 536.253 140 535.043C137.551 534.114 136.293 533.31 134 532.043C131.391 530.601 129.621 530.137 127.5 528.043C126.111 526.671 124.995 525.932 124.5 524.043ZM30 527.043L27.5 469.043L30 492.543C30 492.543 31.3011 497.96 33 501.043C34.6779 504.088 36.0166 505.61 38.5 508.043C40.7877 510.284 42.1806 511.524 45 513.043C48.7544 515.066 51.2873 515.38 55.5 516.043C58.9773 516.591 60.9824 516.678 64.5 516.543C69.2474 516.361 76.5 514.543 76.5 514.543L112.5 505.043C112.5 505.043 113.353 506.606 114 507.543C114.711 508.572 116 510.043 116 510.043L37.5 534.043C37.5 534.043 35.9423 534.904 35 535.543C34.192 536.091 33 537.043 33 537.043V540.543C33.2078 541.76 33.4205 542.452 34 543.543C34.7156 544.89 36.5 546.543 36.5 546.543L46 548.543L47 571.043C47 571.043 43.9697 569.484 42 568.543C39.8713 567.526 38.2523 567.623 36.5 566.043C35.2524 564.918 34.7581 564.042 34 562.543C32.9951 560.556 32.5 557.043 32.5 557.043L30 527.043Z" fill="#A25700"/>
<path d="M230 499.543C224.93 499.859 222.089 500.283 217.092 501.029L217 501.043C211.697 501.835 208.714 502.295 203.5 503.543C198.152 504.823 195.012 504.995 190 507.543C186.955 509.091 183.534 509.787 182.5 513.043C182.027 514.532 182.029 515.554 182.5 517.043C183.292 519.548 185.283 520.133 187.5 521.543C192.058 524.441 195.651 523.796 201 524.543C210.282 525.84 215.64 525.033 225 524.543C233.033 524.122 237.556 524.081 245.5 522.543C255.589 520.59 262.451 520.747 271 515.043C274.224 512.892 278.383 512.417 278.5 508.543C278.563 506.441 277.912 505.101 276.5 503.543C274.674 501.528 272.614 501.794 270 501.043C266.575 500.059 264.534 499.997 261 499.543C254.984 498.769 251.553 498.543 245.5 498.543C239.447 498.543 236.041 499.166 230 499.543Z" fill="#A25700"/>
<path d="M134 478.043C132.927 477.431 132.232 477.134 131 477.043C129.815 476.956 129.069 477.025 128 477.543C126.757 478.145 126.183 478.843 125.5 480.043C124.433 481.918 124.001 483.386 124 485.543C123.998 489.299 124.771 491.709 126.5 495.043C127.399 496.776 128.088 497.695 129.5 499.043C130.715 500.203 131.384 501.083 133 501.543C134.315 501.917 135.217 502.015 136.5 501.543C137.673 501.111 138.273 500.56 139 499.543C140.047 498.079 139.763 496.828 140 495.043C140.36 492.333 140.556 490.72 140 488.043C139.484 485.558 138.877 484.176 137.5 482.043C136.374 480.299 135.803 479.071 134 478.043Z" fill="#A25700"/>
<path d="M123.5 605.043C123.5 605.043 126.198 606.588 127.5 608.043C129.191 609.933 129.673 611.448 130.425 613.807L130.5 614.043C131.163 616.123 131.289 617.37 131.5 619.543C131.745 622.07 132.143 623.587 131.5 626.043C131.123 627.482 130.751 628.259 130 629.543C129.645 630.151 129 631.043 129 631.043C129 631.043 130.559 631.302 131.5 631.043C132.971 630.639 133.517 629.709 134.5 628.543C135.515 627.339 135.916 626.505 136.5 625.043C137.453 622.658 137.669 621.106 137.5 618.543C137.381 616.747 137.017 615.767 136.5 614.043C136.021 612.445 135.731 611.542 135 610.043C134.193 608.387 133.774 607.373 132.5 606.043C131.338 604.83 130.616 604.003 129 603.543C127.685 603.169 126.771 603.039 125.5 603.543C124.592 603.903 123.5 605.043 123.5 605.043Z" fill="#A25700"/>
</svg>
