<svg width="48" height="15" viewBox="0 0 48 15" fill="none" xmlns="http://www.w3.org/2000/svg">
<path d="M9 14.216C8.532 14.216 8.148 14.066 7.848 13.766C7.548 13.454 7.398 13.04 7.398 12.524C7.398 11.996 7.662 10.514 8.19 8.078C7.878 8.006 7.374 7.97 6.678 7.97C5.982 7.97 5.316 8.03 4.68 8.15C4.068 10.91 3.744 12.758 3.708 13.694C3.276 13.934 2.364 14.054 0.972 14.054H0.792C0.828 13.526 1.146 11.948 1.746 9.32C2.358 6.692 2.736 4.718 2.88 3.398C2.88 3.206 2.82 2.978 2.7 2.714C2.58 2.438 2.46 2.216 2.34 2.048L2.142 1.796L2.196 1.526C2.904 1.322 4.026 1.22 5.562 1.22C5.706 1.46 5.778 1.85 5.778 2.39C5.778 2.93 5.508 4.418 4.968 6.854H8.442C8.862 4.718 9.078 3.194 9.09 2.282C9.09 2.078 9.078 1.91 9.054 1.778C10.014 1.406 10.98 1.22 11.952 1.22C11.988 1.292 12.006 1.472 12.006 1.76C12.006 2.42 11.712 4.118 11.124 6.854C10.548 9.59 10.26 11.33 10.26 12.074C10.26 12.398 10.314 12.56 10.422 12.56C10.53 12.56 10.896 12.404 11.52 12.092L11.844 12.758C10.776 13.73 9.828 14.216 9 14.216ZM18.156 6.548C18.18 6.524 18.246 6.368 18.354 6.08C18.918 6.08 19.674 6.248 20.622 6.584C20.322 7.58 20.082 8.624 19.902 9.716C19.722 10.796 19.632 11.57 19.632 12.038C19.632 12.494 19.68 12.722 19.776 12.722C19.848 12.722 20.112 12.608 20.568 12.38L20.784 12.272L21.108 12.902C21 12.998 20.856 13.118 20.676 13.262C20.508 13.406 20.184 13.604 19.704 13.856C19.224 14.096 18.792 14.216 18.408 14.216C17.664 14.216 17.232 13.88 17.112 13.208C16.344 13.88 15.648 14.216 15.024 14.216C14.412 14.216 13.89 13.976 13.458 13.496C13.038 13.016 12.828 12.26 12.828 11.228C12.828 9.62 13.158 8.354 13.818 7.43C14.478 6.494 15.276 6.026 16.212 6.026C16.884 6.026 17.532 6.2 18.156 6.548ZM16.104 12.686C16.392 12.686 16.716 12.572 17.076 12.344C17.16 10.652 17.442 8.978 17.922 7.322C17.562 7.166 17.256 7.088 17.004 7.088C16.572 7.088 16.2 7.514 15.888 8.366C15.588 9.206 15.438 10.136 15.438 11.156C15.438 12.176 15.66 12.686 16.104 12.686ZM26.1024 1.436C26.1024 2.348 25.7964 4.136 25.1844 6.8C25.9044 6.284 26.5524 6.026 27.1284 6.026C27.7164 6.026 28.2144 6.272 28.6224 6.764C29.0424 7.244 29.2524 7.982 29.2524 8.978C29.2524 10.646 28.9224 11.936 28.2624 12.848C27.6144 13.76 26.8224 14.216 25.8864 14.216C25.5384 14.216 25.1844 14.174 24.8244 14.09C24.4764 14.006 24.2124 13.916 24.0324 13.82L23.7624 13.694C22.9944 13.958 22.2444 14.09 21.5124 14.09C21.4404 14.03 21.4044 13.742 21.4044 13.226C21.4044 12.698 21.7404 10.97 22.4124 8.042C23.0844 5.102 23.4204 3.092 23.4204 2.012C23.4204 1.82 23.3904 1.574 23.3304 1.274C24.2664 0.95 25.1604 0.788 26.0124 0.788C26.0724 0.955999 26.1024 1.172 26.1024 1.436ZM25.9404 7.556C25.7124 7.556 25.3704 7.664 24.9144 7.88C24.3624 10.208 24.0624 11.876 24.0144 12.884C24.3744 13.04 24.7164 13.118 25.0404 13.118C25.4964 13.118 25.8744 12.698 26.1744 11.858C26.4864 11.018 26.6424 10.094 26.6424 9.086C26.6424 8.066 26.4084 7.556 25.9404 7.556ZM33.8148 7.142C33.8148 7.646 33.6528 8.516 33.3288 9.752C33.0048 10.976 32.8428 11.78 32.8428 12.164C32.8428 12.536 32.8968 12.722 33.0048 12.722C33.0768 12.722 33.3528 12.608 33.8328 12.38L34.0488 12.272L34.3548 12.902C34.2468 12.998 34.1028 13.118 33.9228 13.262C33.7428 13.406 33.4068 13.604 32.9148 13.856C32.4228 14.096 31.9668 14.216 31.5468 14.216C31.1268 14.216 30.7968 14.09 30.5568 13.838C30.3168 13.574 30.1968 13.226 30.1968 12.794C30.1968 12.35 30.3468 11.57 30.6468 10.454C30.9468 9.326 31.0968 8.594 31.0968 8.258C31.0968 7.754 30.9408 7.28 30.6288 6.836L30.4668 6.62L30.4848 6.386C31.1208 6.206 32.1528 6.116 33.5808 6.116C33.7368 6.296 33.8148 6.638 33.8148 7.142ZM31.7628 4.154C31.5228 3.914 31.4028 3.596 31.4028 3.2C31.4028 2.804 31.5648 2.456 31.8888 2.156C32.2248 1.856 32.6088 1.706 33.0408 1.706C33.4728 1.706 33.8088 1.826 34.0488 2.066C34.2888 2.306 34.4088 2.624 34.4088 3.02C34.4088 3.404 34.2348 3.746 33.8868 4.046C33.5508 4.346 33.1728 4.496 32.7528 4.496C32.3328 4.496 32.0028 4.382 31.7628 4.154ZM40.6271 6.242C40.6031 6.542 40.5011 6.89 40.3211 7.286C39.8651 7.238 39.4331 7.214 39.0251 7.214H38.7011C38.1491 9.89 37.8731 11.558 37.8731 12.218C37.8731 12.566 37.9451 12.74 38.0891 12.74C38.2451 12.74 38.6471 12.59 39.2951 12.29L39.6191 12.884C38.5511 13.772 37.5611 14.216 36.6491 14.216C36.2291 14.216 35.8811 14.084 35.6051 13.82C35.3411 13.556 35.2091 13.208 35.2091 12.776C35.2091 12.332 35.2571 11.834 35.3531 11.282C35.4611 10.73 35.6051 10.058 35.7851 9.266C35.9651 8.462 36.0971 7.814 36.1811 7.322C35.7371 7.358 35.4071 7.394 35.1911 7.43C35.1671 7.286 35.1551 7.094 35.1551 6.854C35.1551 6.602 35.1731 6.398 35.2091 6.242H36.3431C36.4391 5.594 36.4871 4.982 36.4871 4.406L36.4691 3.848V3.794C37.4051 3.47 38.2871 3.308 39.1151 3.308C39.1631 3.548 39.1871 3.848 39.1871 4.208C39.1871 4.568 39.0851 5.246 38.8811 6.242H40.6271ZM40.2297 10.886C40.2297 9.386 40.6797 8.204 41.5797 7.34C42.4917 6.464 43.5237 6.026 44.6757 6.026C45.3837 6.026 45.9657 6.2 46.4217 6.548C46.8777 6.896 47.1057 7.364 47.1057 7.952C47.1057 8.528 46.9557 9.014 46.6557 9.41C46.3677 9.806 46.0137 10.112 45.5937 10.328C44.7417 10.748 43.9617 11.012 43.2537 11.12L42.8217 11.174C42.9057 12.302 43.3677 12.866 44.2077 12.866C44.4957 12.866 44.8017 12.794 45.1257 12.65C45.4497 12.506 45.7017 12.362 45.8817 12.218L46.1517 12.002L46.5837 12.578C46.4877 12.71 46.2957 12.884 46.0077 13.1C45.7197 13.316 45.4497 13.496 45.1977 13.64C44.5017 14.024 43.7397 14.216 42.9117 14.216C42.0837 14.216 41.4297 13.922 40.9497 13.334C40.4697 12.746 40.2297 11.93 40.2297 10.886ZM42.8037 10.292C43.4157 10.184 43.9017 9.926 44.2617 9.518C44.6217 9.11 44.8017 8.582 44.8017 7.934C44.8017 7.286 44.6097 6.962 44.2257 6.962C43.7697 6.962 43.4157 7.352 43.1637 8.132C42.9237 8.9 42.8037 9.62 42.8037 10.292Z" fill="#E71C96"/>
</svg>
