<svg width="49" height="50" viewBox="0 0 49 50" fill="none" xmlns="http://www.w3.org/2000/svg">
<path d="M11.2236 10.5176L46.5176 8.25879L45.247 45.5292L11.2236 48.7762V10.5176Z" fill="white"/>
<path d="M0.0703125 2.32959L11.2232 10.5178V48.9176L0.0703125 38.4706V2.32959Z" fill="#CAE6F2"/>
<path d="M0 2.39999L35.0116 0L46.6586 8.25878L11.2235 10.6588L0 2.39999Z" fill="#F8F8F8"/>
<g filter="url(#filter0_d)">
<path d="M42.7061 45.7056L44.1529 44.2587L45.5998 45.7056L44.1529 47.1524L42.7061 45.7056Z" fill="white"/>
</g>
<g filter="url(#filter1_d)">
<path d="M45.1064 45.7056L46.5533 44.2587L48.0002 45.7056L46.5533 47.1524L45.1064 45.7056Z" fill="white"/>
</g>
<g filter="url(#filter2_d)">
<path d="M45.1064 8.29395L46.5533 6.84709L48.0002 8.29395L46.5533 9.7408L45.1064 8.29395Z" fill="white"/>
</g>
<path d="M44.6113 12.6704L46.0582 11.2236L47.505 12.6704L46.0582 14.1173L44.6113 12.6704Z" fill="white"/>
<path d="M44.1875 14.2939L45.6344 12.8471L47.0812 14.2939L45.6344 15.7408L44.1875 14.2939Z" fill="white"/>
<path d="M44.8232 18.1763L46.2701 16.7294L47.7169 18.1763L46.2701 19.6231L44.8232 18.1763Z" fill="white"/>
<path d="M9.81152 15.7759L11.2584 14.329L12.7052 15.7759L11.2584 17.2227L9.81152 15.7759Z" fill="#CAE6F2"/>
<path d="M9.24805 20.6587L10.6949 19.2118L12.1418 20.6587L10.6949 22.1055L9.24805 20.6587Z" fill="#CAE6F2"/>
<path d="M9.95215 22.6235L11.399 21.1767L12.8459 22.6235L11.399 24.0704L9.95215 22.6235Z" fill="#CAE6F2"/>
<path d="M9.45996 29.0464L10.9068 27.5995L12.3537 29.0464L10.9068 30.4932L9.45996 29.0464Z" fill="#CAE6F2"/>
<path d="M9.88184 34.4819L11.3287 33.0351L12.7755 34.4819L11.3287 35.9288L9.88184 34.4819Z" fill="#CAE6F2"/>
<path d="M10.1641 40.623L11.6109 39.1762L13.0578 40.623L11.6109 42.0699L10.1641 40.623Z" fill="#CAE6F2"/>
<path d="M9.38867 48.3174L10.8355 46.8705L12.2824 48.3174L10.8355 49.7642L9.38867 48.3174Z" fill="#CAE6F2"/>
<path d="M7.83594 47.3291L9.28279 45.8822L10.7296 47.3291L9.28279 48.776L7.83594 47.3291Z" fill="#CAE6F2"/>
<path d="M44.6113 19.7295L46.0582 18.2826L47.505 19.7295L46.0582 21.1763L44.6113 19.7295Z" fill="white"/>
<path d="M43.835 25.1646L45.2818 23.7177L46.7287 25.1646L45.2818 26.6114L43.835 25.1646Z" fill="white"/>
<path d="M44.541 28.7646L45.9879 27.3178L47.4347 28.7646L45.9879 30.2115L44.541 28.7646Z" fill="white"/>
<path d="M44.1875 42.7407L45.6344 41.2939L47.0812 42.7407L45.6344 44.1876L44.1875 42.7407Z" fill="white"/>
<path d="M43.623 40.623L45.0699 39.1762L46.5168 40.623L45.0699 42.0699L43.623 40.623Z" fill="white"/>
<path d="M43.9053 35.1177L45.3521 33.6708L46.799 35.1177L45.3521 36.5645L43.9053 35.1177Z" fill="white"/>
<g filter="url(#filter3_d)">
<path d="M9.81152 10.6938L11.2584 9.24699L12.7052 10.6938L11.2584 12.1407L9.81152 10.6938Z" fill="#F8F8F8"/>
</g>
<g filter="url(#filter4_d)">
<path d="M43.6943 8.29395L45.1412 6.84709L46.588 8.29395L45.1412 9.7408L43.6943 8.29395Z" fill="white"/>
</g>
<g filter="url(#filter5_d)">
<path d="M43.7646 44.2939L45.2115 42.8471L46.6584 44.2939L45.2115 45.7408L43.7646 44.2939Z" fill="white"/>
</g>
<g filter="url(#filter6_d)">
<path d="M18.4238 42.0352L19.8707 40.5883L21.3175 42.0352L19.8707 43.482L18.4238 42.0352Z" fill="white"/>
</g>
<g filter="url(#filter7_d)">
<path d="M15.5293 15.2817L16.9762 13.8349L18.423 15.2817L16.9762 16.7286L15.5293 15.2817Z" fill="white"/>
</g>
<g filter="url(#filter8_d)">
<path d="M17.6465 15.7759L19.0933 14.329L20.5402 15.7759L19.0933 17.2227L17.6465 15.7759Z" fill="white"/>
</g>
<g filter="url(#filter9_d)">
<path d="M40.7295 33.1411L42.1763 31.6943L43.6232 33.1411L42.1763 34.588L40.7295 33.1411Z" fill="white"/>
</g>
<ellipse cx="37.7265" cy="24.5201" rx="1.65881" ry="1.62352" transform="rotate(11.9676 37.7265 24.5201)" fill="#4C2715"/>
<ellipse cx="20.0149" cy="25.8697" rx="1.58823" ry="1.62352" transform="rotate(11.9676 20.0149 25.8697)" fill="#4C2715"/>
<ellipse cx="16.3856" cy="28.5279" rx="2.32604" ry="1.16302" transform="rotate(4.50982 16.3856 28.5279)" fill="#FDBEB9"/>
<ellipse cx="41.3058" cy="26.8514" rx="2.32604" ry="1.16302" transform="rotate(-10.122 41.3058 26.8514)" fill="#FDBEB9"/>
<path d="M29.9156 26.3116C29.9156 26.3116 30.9419 25.5402 31.517 25.4659C31.8762 25.4194 32.1539 25.4172 32.4243 25.6582C32.668 25.8754 32.69 26.1113 32.7337 26.4349C32.7942 26.8836 32.7224 27.1786 32.4932 27.5691C32.2641 27.9596 32.0088 28.0995 31.6204 28.3323C31.1676 28.6038 30.8579 28.6597 30.342 28.7724C29.698 28.9131 29.316 28.9311 28.6581 28.8895C27.9351 28.8438 27.4921 28.8274 26.8435 28.5049C26.2996 28.2344 25.8122 28.1143 25.6268 27.5359C25.4609 27.0185 25.5062 26.5324 25.9153 26.1748C26.2201 25.9082 26.5144 25.9367 26.9187 25.9134C27.4611 25.8823 27.7482 26.0893 28.2797 26.2019C28.634 26.277 28.8275 26.3501 29.187 26.3942C29.6453 26.4505 29.9156 26.3116 29.9156 26.3116Z" fill="#FDBEB9" fill-opacity="0.47" stroke="#4C2715"/>
<defs>
<filter id="filter0_d" x="41.7061" y="43.2588" width="4.89371" height="4.89371" filterUnits="userSpaceOnUse" color-interpolation-filters="sRGB">
<feFlood flood-opacity="0" result="BackgroundImageFix"/>
<feColorMatrix in="SourceAlpha" type="matrix" values="0 0 0 0 0 0 0 0 0 0 0 0 0 0 0 0 0 0 127 0"/>
<feOffset/>
<feGaussianBlur stdDeviation="0.5"/>
<feColorMatrix type="matrix" values="0 0 0 0 0 0 0 0 0 0 0 0 0 0 0 0 0 0 0.5 0"/>
<feBlend mode="normal" in2="BackgroundImageFix" result="effect1_dropShadow"/>
<feBlend mode="normal" in="SourceGraphic" in2="effect1_dropShadow" result="shape"/>
</filter>
<filter id="filter1_d" x="44.1064" y="43.2588" width="4.89371" height="4.89371" filterUnits="userSpaceOnUse" color-interpolation-filters="sRGB">
<feFlood flood-opacity="0" result="BackgroundImageFix"/>
<feColorMatrix in="SourceAlpha" type="matrix" values="0 0 0 0 0 0 0 0 0 0 0 0 0 0 0 0 0 0 127 0"/>
<feOffset/>
<feGaussianBlur stdDeviation="0.5"/>
<feColorMatrix type="matrix" values="0 0 0 0 0 0 0 0 0 0 0 0 0 0 0 0 0 0 0.5 0"/>
<feBlend mode="normal" in2="BackgroundImageFix" result="effect1_dropShadow"/>
<feBlend mode="normal" in="SourceGraphic" in2="effect1_dropShadow" result="shape"/>
</filter>
<filter id="filter2_d" x="44.1064" y="5.84717" width="4.89371" height="4.89371" filterUnits="userSpaceOnUse" color-interpolation-filters="sRGB">
<feFlood flood-opacity="0" result="BackgroundImageFix"/>
<feColorMatrix in="SourceAlpha" type="matrix" values="0 0 0 0 0 0 0 0 0 0 0 0 0 0 0 0 0 0 127 0"/>
<feOffset/>
<feGaussianBlur stdDeviation="0.5"/>
<feColorMatrix type="matrix" values="0 0 0 0 0 0 0 0 0 0 0 0 0 0 0 0 0 0 0.5 0"/>
<feBlend mode="normal" in2="BackgroundImageFix" result="effect1_dropShadow"/>
<feBlend mode="normal" in="SourceGraphic" in2="effect1_dropShadow" result="shape"/>
</filter>
<filter id="filter3_d" x="5.81152" y="9.24707" width="10.8937" height="10.8937" filterUnits="userSpaceOnUse" color-interpolation-filters="sRGB">
<feFlood flood-opacity="0" result="BackgroundImageFix"/>
<feColorMatrix in="SourceAlpha" type="matrix" values="0 0 0 0 0 0 0 0 0 0 0 0 0 0 0 0 0 0 127 0"/>
<feOffset dy="4"/>
<feGaussianBlur stdDeviation="2"/>
<feColorMatrix type="matrix" values="0 0 0 0 0 0 0 0 0 0 0 0 0 0 0 0 0 0 0.25 0"/>
<feBlend mode="normal" in2="BackgroundImageFix" result="effect1_dropShadow"/>
<feBlend mode="normal" in="SourceGraphic" in2="effect1_dropShadow" result="shape"/>
</filter>
<filter id="filter4_d" x="42.6943" y="5.84717" width="4.89371" height="4.89371" filterUnits="userSpaceOnUse" color-interpolation-filters="sRGB">
<feFlood flood-opacity="0" result="BackgroundImageFix"/>
<feColorMatrix in="SourceAlpha" type="matrix" values="0 0 0 0 0 0 0 0 0 0 0 0 0 0 0 0 0 0 127 0"/>
<feOffset/>
<feGaussianBlur stdDeviation="0.5"/>
<feColorMatrix type="matrix" values="0 0 0 0 0 0 0 0 0 0 0 0 0 0 0 0 0 0 0.5 0"/>
<feBlend mode="normal" in2="BackgroundImageFix" result="effect1_dropShadow"/>
<feBlend mode="normal" in="SourceGraphic" in2="effect1_dropShadow" result="shape"/>
</filter>
<filter id="filter5_d" x="42.7646" y="41.8472" width="4.89371" height="4.89371" filterUnits="userSpaceOnUse" color-interpolation-filters="sRGB">
<feFlood flood-opacity="0" result="BackgroundImageFix"/>
<feColorMatrix in="SourceAlpha" type="matrix" values="0 0 0 0 0 0 0 0 0 0 0 0 0 0 0 0 0 0 127 0"/>
<feOffset/>
<feGaussianBlur stdDeviation="0.5"/>
<feColorMatrix type="matrix" values="0 0 0 0 0 0 0 0 0 0 0 0 0 0 0 0 0 0 0.5 0"/>
<feBlend mode="normal" in2="BackgroundImageFix" result="effect1_dropShadow"/>
<feBlend mode="normal" in="SourceGraphic" in2="effect1_dropShadow" result="shape"/>
</filter>
<filter id="filter6_d" x="17.4238" y="39.5884" width="4.89371" height="4.89371" filterUnits="userSpaceOnUse" color-interpolation-filters="sRGB">
<feFlood flood-opacity="0" result="BackgroundImageFix"/>
<feColorMatrix in="SourceAlpha" type="matrix" values="0 0 0 0 0 0 0 0 0 0 0 0 0 0 0 0 0 0 127 0"/>
<feOffset/>
<feGaussianBlur stdDeviation="0.5"/>
<feColorMatrix type="matrix" values="0 0 0 0 0 0 0 0 0 0 0 0 0 0 0 0 0 0 0.5 0"/>
<feBlend mode="normal" in2="BackgroundImageFix" result="effect1_dropShadow"/>
<feBlend mode="normal" in="SourceGraphic" in2="effect1_dropShadow" result="shape"/>
</filter>
<filter id="filter7_d" x="14.5293" y="12.835" width="4.89371" height="4.89371" filterUnits="userSpaceOnUse" color-interpolation-filters="sRGB">
<feFlood flood-opacity="0" result="BackgroundImageFix"/>
<feColorMatrix in="SourceAlpha" type="matrix" values="0 0 0 0 0 0 0 0 0 0 0 0 0 0 0 0 0 0 127 0"/>
<feOffset/>
<feGaussianBlur stdDeviation="0.5"/>
<feColorMatrix type="matrix" values="0 0 0 0 0 0 0 0 0 0 0 0 0 0 0 0 0 0 0.5 0"/>
<feBlend mode="normal" in2="BackgroundImageFix" result="effect1_dropShadow"/>
<feBlend mode="normal" in="SourceGraphic" in2="effect1_dropShadow" result="shape"/>
</filter>
<filter id="filter8_d" x="16.6465" y="13.3291" width="4.89371" height="4.89371" filterUnits="userSpaceOnUse" color-interpolation-filters="sRGB">
<feFlood flood-opacity="0" result="BackgroundImageFix"/>
<feColorMatrix in="SourceAlpha" type="matrix" values="0 0 0 0 0 0 0 0 0 0 0 0 0 0 0 0 0 0 127 0"/>
<feOffset/>
<feGaussianBlur stdDeviation="0.5"/>
<feColorMatrix type="matrix" values="0 0 0 0 0 0 0 0 0 0 0 0 0 0 0 0 0 0 0.5 0"/>
<feBlend mode="normal" in2="BackgroundImageFix" result="effect1_dropShadow"/>
<feBlend mode="normal" in="SourceGraphic" in2="effect1_dropShadow" result="shape"/>
</filter>
<filter id="filter9_d" x="39.7295" y="30.6943" width="4.89371" height="4.89371" filterUnits="userSpaceOnUse" color-interpolation-filters="sRGB">
<feFlood flood-opacity="0" result="BackgroundImageFix"/>
<feColorMatrix in="SourceAlpha" type="matrix" values="0 0 0 0 0 0 0 0 0 0 0 0 0 0 0 0 0 0 127 0"/>
<feOffset/>
<feGaussianBlur stdDeviation="0.5"/>
<feColorMatrix type="matrix" values="0 0 0 0 0 0 0 0 0 0 0 0 0 0 0 0 0 0 0.5 0"/>
<feBlend mode="normal" in2="BackgroundImageFix" result="effect1_dropShadow"/>
<feBlend mode="normal" in="SourceGraphic" in2="effect1_dropShadow" result="shape"/>
</filter>
</defs>
</svg>
