<svg width="102" height="109" viewBox="0 0 102 109" fill="none" xmlns="http://www.w3.org/2000/svg">
<path d="M98.5239 70.3911C98.5239 70.3911 100.024 71.2754 100.696 72.1292C101.593 73.2684 102 74.1554 102 75.6053C102 77.0551 101.307 77.7665 100.696 79.0814C98.9376 82.8674 96.5168 84.8818 93.3098 87.5544C82.8815 96.2446 83.7228 95.5006 76.3638 99.5034C68.7499 103.645 55.9417 108.194 55.9417 108.194C55.9417 108.194 51.6078 108.912 48.9895 108.194C47.2693 107.722 46.3795 107.175 44.8616 106.238C41.6965 104.285 40.3957 102.451 38.1267 99.5034C36.3602 97.2087 35.2311 95.9152 34.2161 93.203C33.5741 91.4877 33.324 90.4618 33.1298 88.6406C32.9678 87.1221 33.1298 84.73 33.1298 84.73C33.1298 84.73 39.4584 81.5174 43.7753 80.1676C48.3968 78.7227 51.1303 78.3222 55.9417 77.7778C62.6019 77.0243 66.4218 78.2898 73.1049 77.7778C79.003 77.326 82.512 77.5585 88.0956 75.6053C91.1049 74.5526 95.4823 72.1292 95.4823 72.1292L98.5239 70.3911Z" fill="#FDBEB9"/>
<path d="M47.36 81.254C45.704 84.0795 48.4557 86.284 49.7498 89.2925C51.452 93.2498 52.9366 95.261 55.6157 98.6345C57.3336 100.798 57.7312 101.381 60.3954 102.111C63.5113 102.964 65.061 101.933 67.9993 100.59L68.1806 100.507C74.8681 97.4502 78.7144 95.6921 84.9453 91.6823C88.7274 89.2484 91.1831 88.2018 94.2873 84.9473C96.4659 82.6634 99.2303 81.5061 99.936 78.4297C100.334 76.693 100.405 75.5862 99.936 73.8673C99.5866 72.586 97.5462 70.8257 97.5462 70.8257C97.5462 70.8257 94.6126 72.8866 92.5493 73.8673C89.1283 75.4931 86.9495 75.8895 83.2073 76.4743C78.2615 77.2473 75.3923 76.3121 70.3892 76.4743C66.1416 76.6121 63.7649 76.6667 59.5263 77.1261C56.5549 77.4482 54.7053 77.3394 51.9224 78.4297C49.9713 79.194 48.4195 79.4461 47.36 81.254Z" fill="#FFDFDD"/>
<path d="M12.4899 51.0626C12.4899 51.0626 9.52274 49.3036 7.92752 47.8038C6.12219 46.1064 5.29461 44.9301 4.01691 42.8069C2.99937 41.116 2.6332 40.0534 1.84435 38.2445C1.11378 36.5693 0.353226 35.7102 0.106293 33.8994C-0.0312653 32.8906 -0.0417938 32.2996 0.106293 31.2923C0.360703 29.5618 0.957756 28.6722 1.84435 27.1645C3.39555 24.5265 4.83405 23.3606 7.27575 21.5158C9.72869 19.6625 11.4029 19.0351 14.228 17.8224C17.5813 16.383 19.575 15.7983 23.1355 14.9981C27.1398 14.0981 29.4669 13.9404 33.5638 13.6946L33.6564 13.689C37.4102 13.4637 39.5706 13.3341 43.3403 13.6946C47.5641 14.0985 49.9362 14.6006 53.9858 15.8671C56.8579 16.7654 58.4721 17.329 61.1553 18.6915C63.8416 20.0556 65.419 20.8201 67.673 22.8193C69.2913 24.2547 70.0903 25.2005 71.3663 26.9472C72.5337 28.5451 73.1168 29.5084 73.9734 31.2923C74.6827 32.7695 75.0606 33.6227 75.4942 35.2029C75.7012 35.9573 75.9287 37.1582 75.9287 37.1582C75.9287 37.1582 70.9949 34.9942 67.673 34.1167C64.9216 33.3898 63.3246 33.1873 60.5035 32.8131C57.0459 32.3545 55.0839 32.1613 51.596 32.1613C48.1081 32.1613 46.1307 32.2502 42.6885 32.8131C39.0532 33.4076 37.0676 34.0662 33.5638 35.2029C30.0119 36.3553 27.9695 36.9569 24.6562 38.679C21.5034 40.3178 19.6414 41.2423 17.0523 43.6759C15.6507 44.9933 14.7308 45.6896 13.7934 47.3693C13.0481 48.7049 12.4899 51.0626 12.4899 51.0626Z" fill="#CAE6F2"/>
<path d="M24.4396 70.4639C24.4396 70.4639 20.9507 67.18 19.0082 64.8153C17.5432 63.0318 16.6944 62.0296 15.5321 60.0356C14.404 58.1005 13.8232 56.9554 13.1423 54.8215C12.434 52.602 11.7776 51.2686 12.056 48.9556C12.2259 47.5435 12.5096 46.7532 13.1423 45.4795C14.4232 42.9003 16.1344 42.0971 18.3564 40.2653C21.1531 37.9598 22.9133 36.8438 26.1776 35.2684C29.4881 33.6708 31.5175 33.1121 35.0851 32.2268C38.9167 31.2761 41.1439 31.0232 45.0789 30.706C49.5611 30.3448 52.1156 30.2947 56.5935 30.706C60.1909 31.0365 62.1937 31.4342 65.7183 32.2268C68.5496 32.8636 70.1865 33.1212 72.8877 34.1821C75.4661 35.1949 77.0057 35.7349 79.1881 37.441C80.9376 38.8086 81.7643 39.794 83.0988 41.5688C84.4017 43.3018 85.0452 44.3661 85.9231 46.3485C86.8905 48.5331 87.6611 52.2144 87.6611 52.2144C87.6611 52.2144 83.1905 53.2405 80.2744 53.5179C76.8115 53.8474 74.8436 53.632 71.3669 53.5179C67.6271 53.3952 65.5472 52.9962 61.8076 52.8662C57.9072 52.7306 55.7001 52.5072 51.8139 52.8662C48.7305 53.151 47.0087 53.4685 43.9926 54.1697C39.55 55.2026 36.8204 55.511 32.9126 57.8631C30.3808 59.3869 28.5999 60.1289 27.0466 62.6427C26.1853 64.0367 26.0414 64.9979 25.5259 66.5533C25.0271 68.0578 24.4396 70.4639 24.4396 70.4639Z" fill="#FDBEB9"/>
<path d="M86.5753 50.7227C86.5753 50.7227 89.5137 53.0798 91.1377 54.8506C92.8581 56.7264 93.6885 57.9131 95.0483 60.0647C96.0829 61.7018 96.7596 62.596 97.4381 64.4099C98.3129 66.7484 98.5244 70.7103 98.5244 70.7103C98.5244 70.7103 95.4787 72.9376 93.3103 73.9691C90.8278 75.15 89.2831 75.5103 86.6178 76.1318L86.5753 76.1417C82.2589 77.1483 79.6933 76.8412 75.278 77.228C69.768 77.7106 66.6674 77.8432 61.1563 78.3143C56.5719 78.7061 53.9747 78.7174 49.4245 79.4005C45.9196 79.9268 43.9047 80.0969 40.517 81.1386C38.0774 81.8888 37.3504 81.9848 35.7374 83.9629C35.018 84.8451 33.1303 86.1355 33.1303 86.1355C33.1303 86.1355 30.4135 84.2248 29.0024 82.6594C27.3163 80.7889 26.5715 79.5192 25.5263 77.228C24.5685 75.1281 24.117 73.8638 23.7883 71.5793C23.4862 69.4799 23.3182 68.2163 23.7883 66.1479C24.2928 63.9279 24.9856 62.7213 26.3954 60.9338C28.0036 58.8945 29.4323 58.2218 31.6095 56.8059C33.9318 55.2957 35.3567 54.6216 37.9099 53.5471C41.4978 52.037 43.6167 51.2807 47.4692 50.7227C51.3317 50.1633 53.5694 50.4546 57.463 50.7227C60.7911 50.9519 62.6074 51.587 65.936 51.809C69.5762 52.0518 71.6453 52.1458 75.278 51.809C77.9308 51.5631 79.3543 50.8933 82.0129 50.7227C83.791 50.6087 86.5753 50.7227 86.5753 50.7227Z" fill="#CAE6F2"/>
<path d="M38.9962 54.1058C37.7269 55.3062 37.3125 56.3392 36.8237 58.0164C36.2064 60.1342 36.3664 61.5071 36.8237 63.6651C37.2648 65.7467 37.9057 66.8348 38.9962 68.662C40.2934 70.8354 41.2951 71.9092 43.1241 73.6589C44.6082 75.0786 47.2519 76.9177 47.2519 76.9177H53.7696C57.2482 76.9177 59.2006 77.0358 62.6771 76.9177C66.3322 76.7936 68.3864 76.6878 72.0192 76.2659C75.2614 75.8895 77.0544 75.4935 80.2749 74.9624C83.2476 74.4721 85.0003 74.5485 87.8789 73.6589C90.6361 72.8067 92.1475 72.116 94.6138 70.6173C96.2237 69.639 98.5244 67.7929 98.5244 67.7929C98.5244 67.7929 97.6496 64.544 96.7864 62.5788C95.7621 60.2471 95.057 58.9664 93.5275 56.9301C92.0499 54.9628 91.2234 53.742 89.1824 52.3678C88.3006 51.774 86.7926 51.0642 86.7926 51.0642C86.7926 51.0642 83.0796 51.265 80.7094 51.4987C78.0702 51.759 76.6237 52.248 73.9745 52.3678C72.5336 52.4329 71.7218 52.4369 70.2811 52.3678C67.0209 52.2113 65.2646 51.4659 62.0254 51.0642C59.403 50.739 57.9326 50.4536 55.2904 50.4125C52.1413 50.3634 50.3509 50.5022 47.2519 51.0642C45.1867 51.4387 43.9618 51.5289 42.0378 52.3678C40.7837 52.9145 39.9902 53.1658 38.9962 54.1058Z" fill="white"/>
<path d="M85.4883 45.7192C85.4883 45.7192 82.4971 46.8688 80.4914 47.24C77.2377 47.8422 75.325 47.3632 72.0184 47.24C66.2226 47.024 63.0129 46.3272 57.245 45.7192C50.9647 45.0572 47.3436 45.3009 41.168 43.9812C37.464 43.1896 34.8728 43.1898 31.826 40.9396C30.086 39.6545 28.7297 39.1967 28.1326 37.2462C27.7601 36.0293 28.1326 33.9874 28.1326 33.9874C28.1326 33.9874 30.3463 32.9602 31.826 32.4666C34.0521 31.7239 35.3753 31.5372 37.6919 31.163C41.1352 30.6069 43.1138 30.6369 46.5994 30.5113C49.991 30.389 51.8985 30.3796 55.2897 30.5113C58.6059 30.6401 60.4785 30.6853 63.7627 31.163C66.3313 31.5367 67.828 31.6158 70.2803 32.4666C72.6104 33.275 73.8013 34.0436 75.929 35.2909C77.7764 36.3738 78.8836 36.9181 80.4914 38.3325C81.7084 39.4031 82.3775 40.0523 83.3157 41.3741C84.4138 42.9211 85.4883 45.7192 85.4883 45.7192Z" fill="#FFE0DD"/>
<path d="M72.4531 29.8156C72.4531 29.8156 70.3552 30.3764 68.977 30.4674C66.8454 30.6081 65.6464 30.2039 63.5456 29.8156C61.4817 29.4342 60.3803 28.9679 58.3315 28.5121C56.6423 28.1363 55.7066 27.8309 53.9863 27.6431C51.8778 27.4129 50.6651 27.4282 48.5549 27.6431C46.7505 27.8268 45.7626 28.1164 43.9926 28.5121C42.0244 28.9521 40.9951 29.5525 38.9957 29.8156C36.8927 30.0923 35.6648 30.1101 33.5643 29.8156C31.6483 29.547 30.5412 29.3231 28.7846 28.5121C26.9041 27.6438 25.7976 27.0344 24.4395 25.4705C23.4664 24.3499 22.6361 23.688 22.4842 22.2117C22.3683 21.0856 22.6104 20.3899 23.136 19.3873C23.8329 18.0579 24.7699 17.6947 25.9603 16.7803C27.2298 15.8051 27.9218 15.126 29.4364 14.6077C30.1765 14.3544 30.6242 14.3242 31.3917 14.1732C33.2401 13.8095 34.2908 13.6323 36.1713 13.5214C39.056 13.3513 40.687 13.6285 43.558 13.9559C47.245 14.3764 49.3227 14.7073 52.9001 15.694C55.849 16.5073 57.5597 16.915 60.2868 18.301C62.7411 19.5485 64.0233 20.4664 66.1527 22.2117C67.5918 23.3912 68.4271 24.0498 69.6288 25.4705C70.9358 27.0157 72.4531 29.8156 72.4531 29.8156Z" fill="white"/>
<path d="M65.501 21.095C65.501 21.095 61.6635 18.5745 58.9833 17.4016C55.6823 15.9571 53.6488 15.5354 50.1382 14.8075L50.0758 14.7946C46.974 14.1514 45.1976 13.9255 42.0373 13.7083C38.7362 13.4814 36.8682 13.5269 33.5643 13.7083C29.897 13.9097 27.84 14.1607 24.2223 14.7946C20.8774 15.3807 18.9323 15.5665 15.7493 16.7499C12.7972 17.8474 8.57984 20.4432 8.57984 20.4432C8.57984 20.4432 11.1768 17.7421 12.925 16.0981C15.687 13.5007 17.388 12.2117 20.3117 9.79768C22.0794 8.33816 22.9747 7.38787 24.8741 6.10432C27.4836 4.34083 29.1206 3.5839 32.0435 2.41097C34.7586 1.32144 36.3147 0.637428 39.213 0.238405C41.7345 -0.108754 43.2016 -0.048771 45.7307 0.238405C47.7973 0.473078 49.014 0.551296 50.9448 1.32469C53.1075 2.19094 54.1811 3.05777 55.9417 4.58353C58.1457 6.49357 59.0844 7.93525 60.6587 10.3533L60.7213 10.4494C62.2329 12.7708 62.9219 14.1899 63.9802 16.7499C64.667 18.4113 65.501 21.095 65.501 21.095Z" fill="#FDBEB9"/>
<path d="M59.3208 9.06437C59.3208 9.06437 59.5395 10.1599 59.3208 10.8024C59.0687 11.5429 58.7141 11.9679 58.0172 12.3232C57.1858 12.7472 56.5561 12.4155 55.6274 12.3232C53.6782 12.1296 52.7683 11.1877 50.8478 10.8024C48.8444 10.4005 47.6768 10.3867 45.6336 10.3679C43.3366 10.3468 42.0499 10.5419 39.7677 10.8024C36.3446 11.1932 34.4938 11.8773 31.0774 12.3232C28.4572 12.6652 26.9838 12.896 24.3425 12.975C23.1552 13.0105 22.4887 12.975 21.3009 12.975C20.2828 12.975 19.6896 13.1871 18.6938 12.975C17.9848 12.824 16.9558 12.3232 16.9558 12.3232L21.3009 9.06437C22.9978 7.79171 23.8736 6.97065 25.646 5.80553C27.6775 4.47015 28.8578 3.75536 31.0774 2.76394C33.2089 1.81194 34.45 1.3267 36.7261 0.808633C38.563 0.390553 39.6266 0.289382 41.5057 0.156864C43.537 0.0136255 44.7011 -0.109348 46.7199 0.156864C48.9037 0.444834 50.2198 0.618778 52.1513 1.67766C53.685 2.51849 54.3745 3.28153 55.6274 4.50199C57.2695 6.10151 59.3208 9.06437 59.3208 9.06437Z" fill="#FFDFDD"/>
<ellipse cx="31.3172" cy="61.5306" rx="4.43288" ry="2.21644" transform="rotate(-16.4895 31.3172 61.5306)" fill="#ED8EAA"/>
<ellipse cx="74.2776" cy="43.1572" rx="4.43288" ry="2.21644" transform="rotate(-30.1182 74.2776 43.1572)" fill="#ED8EAA"/>
<path d="M58.3477 49.5955C58.31 49.5984 58.2707 49.6005 58.2352 49.6008C58.2227 49.6009 58.2081 49.6008 58.1925 49.6001C58.1783 49.5996 58.1557 49.5983 58.1296 49.5947C58.1164 49.5928 58.097 49.5896 58.0742 49.584C58.0541 49.5791 58.015 49.5683 57.9697 49.546C57.9688 49.5456 57.9679 49.5451 57.9671 49.5447C57.808 49.5612 57.6273 49.5868 57.4272 49.6216C56.983 49.6987 56.473 49.8155 55.9455 49.9547C54.8892 50.2336 53.7887 50.5956 53.0461 50.8892C52.288 51.189 51.2101 51.6359 50.2273 52.1102C49.7356 52.3475 49.2742 52.5885 48.8913 52.8186C48.4996 53.0539 48.2233 53.2584 48.0749 53.4167C48.0547 53.4382 48.037 53.4571 48.0213 53.4738C47.9884 53.5088 47.9646 53.5341 47.9464 53.5538C47.9339 53.5936 47.9174 53.6392 47.8941 53.695C47.9444 53.7632 47.9894 53.8434 48.0273 53.9392C48.0932 54.106 48.3003 54.3351 48.7249 54.5628C49.1353 54.7828 49.6876 54.9678 50.3298 55.0827C51.6169 55.3129 53.1852 55.2478 54.5554 54.7059C55.9501 54.1543 57.0719 53.2887 57.7762 52.4236C58.1286 51.9908 58.3653 51.5718 58.4862 51.2066C58.6084 50.8375 58.6002 50.5637 58.5281 50.3812C58.4726 50.2409 58.4439 50.0897 58.4241 49.9773C58.4181 49.9434 58.4127 49.912 58.4077 49.8826C58.3936 49.7995 58.382 49.7315 58.3655 49.6621C58.3595 49.6367 58.3535 49.6147 58.3477 49.5955ZM47.692 53.494L47.6921 53.4941L47.692 53.494ZM47.9098 53.5948C47.9099 53.5948 47.9106 53.5939 47.9119 53.5922C47.9104 53.594 47.9098 53.5948 47.9098 53.5948ZM47.9666 53.4835C47.967 53.482 47.9671 53.4818 47.9667 53.4829L47.9666 53.4835Z" fill="#F8B78D" stroke="black"/>
<ellipse rx="3.1613" ry="3.09404" transform="matrix(-0.888465 0.458944 0.458944 0.888465 35.4228 53.5299)" fill="#4C2715"/>
<ellipse rx="3.1613" ry="3.09404" transform="matrix(-0.888465 0.458944 0.458944 0.888465 65.9443 40.2701)" fill="#4C2715"/>
</svg>
